<svg width="151" height="21" viewBox="0 0 151 21" fill="none" xmlns="http://www.w3.org/2000/svg">
<path d="M0.472328 1.852H8.50633C10.0143 1.852 11.193 2.27667 12.0423 3.126C12.909 3.97533 13.3423 5.11067 13.3423 6.532C13.3423 7.208 13.247 7.78867 13.0563 8.274C12.8657 8.742 12.623 9.132 12.3283 9.444C12.0337 9.73867 11.6957 9.964 11.3143 10.12C10.933 10.2587 10.5603 10.3453 10.1963 10.38V10.536C10.5603 10.5533 10.959 10.64 11.3923 10.796C11.843 10.952 12.259 11.2033 12.6403 11.55C13.0217 11.8793 13.3423 12.3127 13.6023 12.85C13.8623 13.37 13.9923 14.0113 13.9923 14.774C13.9923 15.502 13.871 16.1867 13.6283 16.828C13.403 17.4693 13.0823 18.024 12.6663 18.492C12.2503 18.96 11.7563 19.3327 11.1843 19.61C10.6123 19.87 9.98833 20 9.31233 20H0.472328V1.852ZM3.41033 17.478H8.45433C9.21699 17.478 9.815 17.2787 10.2483 16.88C10.6817 16.4813 10.8983 15.9093 10.8983 15.164V14.28C10.8983 13.5347 10.6817 12.9627 10.2483 12.564C9.815 12.1653 9.21699 11.966 8.45433 11.966H3.41033V17.478ZM3.41033 9.522H7.96033C8.68833 9.522 9.25166 9.34 9.65033 8.976C10.049 8.59467 10.2483 8.05733 10.2483 7.364V6.532C10.2483 5.83867 10.049 5.31 9.65033 4.946C9.25166 4.56467 8.68833 4.374 7.96033 4.374H3.41033V9.522ZM22.707 20.312C21.771 20.312 20.913 20.1473 20.133 19.818C19.3703 19.4887 18.7203 19.0207 18.183 18.414C17.6457 17.79 17.2297 17.0447 16.935 16.178C16.6403 15.294 16.493 14.3147 16.493 13.24C16.493 12.1653 16.6403 11.1947 16.935 10.328C17.2297 9.444 17.6457 8.69867 18.183 8.092C18.7203 7.468 19.3703 6.99133 20.133 6.662C20.913 6.33267 21.771 6.168 22.707 6.168C23.643 6.168 24.4923 6.33267 25.255 6.662C26.035 6.99133 26.6937 7.468 27.231 8.092C27.7683 8.69867 28.1843 9.444 28.479 10.328C28.7737 11.1947 28.921 12.1653 28.921 13.24C28.921 14.3147 28.7737 15.294 28.479 16.178C28.1843 17.0447 27.7683 17.79 27.231 18.414C26.6937 19.0207 26.035 19.4887 25.255 19.818C24.4923 20.1473 23.643 20.312 22.707 20.312ZM22.707 17.972C23.6777 17.972 24.4577 17.6773 25.047 17.088C25.6363 16.4813 25.931 15.58 25.931 14.384V12.096C25.931 10.9 25.6363 10.0073 25.047 9.418C24.4577 8.81133 23.6777 8.508 22.707 8.508C21.7363 8.508 20.9563 8.81133 20.367 9.418C19.7777 10.0073 19.483 10.9 19.483 12.096V14.384C19.483 15.58 19.7777 16.4813 20.367 17.088C20.9563 17.6773 21.7363 17.972 22.707 17.972ZM41.9848 20C41.2394 20 40.6674 19.792 40.2688 19.376C39.8701 18.9427 39.6274 18.3967 39.5408 17.738H39.4108C39.1508 18.5873 38.6741 19.2287 37.9808 19.662C37.2874 20.0953 36.4468 20.312 35.4588 20.312C34.0548 20.312 32.9714 19.948 32.2088 19.22C31.4634 18.492 31.0908 17.5127 31.0908 16.282C31.0908 14.93 31.5761 13.916 32.5468 13.24C33.5348 12.564 34.9734 12.226 36.8628 12.226H39.3068V11.082C39.3068 10.25 39.0814 9.60867 38.6308 9.158C38.1801 8.70733 37.4781 8.482 36.5248 8.482C35.7274 8.482 35.0774 8.65533 34.5748 9.002C34.0721 9.34867 33.6474 9.79067 33.3008 10.328L31.6108 8.794C32.0614 8.03133 32.6941 7.40733 33.5088 6.922C34.3234 6.41933 35.3894 6.168 36.7068 6.168C38.4574 6.168 39.8008 6.57533 40.7368 7.39C41.6728 8.20467 42.1408 9.37467 42.1408 10.9V17.686H43.5708V20H41.9848ZM36.2648 18.154C37.1488 18.154 37.8768 17.9633 38.4488 17.582C39.0208 17.1833 39.3068 16.6547 39.3068 15.996V14.046H36.9148C34.9561 14.046 33.9768 14.6527 33.9768 15.866V16.334C33.9768 16.9407 34.1761 17.4 34.5748 17.712C34.9908 18.0067 35.5541 18.154 36.2648 18.154ZM50.6383 20.312C49.3556 20.312 48.281 20.0867 47.4143 19.636C46.5476 19.1853 45.7936 18.5613 45.1523 17.764L46.9723 16.1C47.475 16.7067 48.0296 17.1833 48.6363 17.53C49.2603 17.8593 49.9796 18.024 50.7943 18.024C51.6263 18.024 52.2416 17.868 52.6403 17.556C53.0563 17.2267 53.2643 16.776 53.2643 16.204C53.2643 15.7707 53.117 15.4067 52.8223 15.112C52.545 14.8 52.051 14.6007 51.3403 14.514L50.0923 14.358C48.7056 14.1847 47.6136 13.786 46.8163 13.162C46.0363 12.5207 45.6463 11.576 45.6463 10.328C45.6463 9.66933 45.7676 9.08867 46.0103 8.586C46.253 8.066 46.591 7.63267 47.0243 7.286C47.475 6.922 48.0036 6.64467 48.6103 6.454C49.2343 6.26333 49.919 6.168 50.6643 6.168C51.8776 6.168 52.8656 6.35867 53.6283 6.74C54.4083 7.12133 55.1016 7.65 55.7083 8.326L53.9663 9.99C53.6196 9.574 53.1603 9.21867 52.5883 8.924C52.0336 8.612 51.3923 8.456 50.6643 8.456C49.8843 8.456 49.3036 8.612 48.9223 8.924C48.5583 9.236 48.3763 9.64333 48.3763 10.146C48.3763 10.666 48.541 11.056 48.8703 11.316C49.1996 11.576 49.7283 11.7667 50.4563 11.888L51.7043 12.044C53.195 12.2693 54.2783 12.7113 54.9543 13.37C55.6476 14.0113 55.9943 14.878 55.9943 15.97C55.9943 16.6287 55.8643 17.2267 55.6043 17.764C55.3616 18.284 55.0063 18.7347 54.5383 19.116C54.0703 19.4973 53.507 19.792 52.8483 20C52.1896 20.208 51.453 20.312 50.6383 20.312ZM58.6276 13.526V10.64H65.8296V13.526H58.6276ZM72.214 20L67.612 6.48H70.42L72.474 12.642L73.852 17.374H74.008L75.386 12.642L77.492 6.48H80.196L75.542 20H72.214ZM84.0107 4.062C83.4214 4.062 82.9881 3.92333 82.7107 3.646C82.4507 3.36867 82.3207 3.01333 82.3207 2.58V2.138C82.3207 1.70467 82.4507 1.34933 82.7107 1.072C82.9881 0.794666 83.4214 0.656 84.0107 0.656C84.6001 0.656 85.0247 0.794666 85.2847 1.072C85.5447 1.34933 85.6747 1.70467 85.6747 2.138V2.58C85.6747 3.01333 85.5447 3.36867 85.2847 3.646C85.0247 3.92333 84.6001 4.062 84.0107 4.062ZM82.5807 6.48H85.4147V20H82.5807V6.48ZM89.4616 20V6.48H92.2956V8.716H92.4256C92.7203 7.988 93.1623 7.38133 93.7516 6.896C94.3583 6.41067 95.1816 6.168 96.2216 6.168C97.6083 6.168 98.6829 6.62733 99.4456 7.546C100.226 8.44733 100.616 9.73867 100.616 11.42V20H97.7816V11.784C97.7816 9.66933 96.9323 8.612 95.2336 8.612C94.8696 8.612 94.5056 8.664 94.1416 8.768C93.7949 8.85467 93.4829 8.99333 93.2056 9.184C92.9283 9.37467 92.7029 9.61733 92.5296 9.912C92.3736 10.2067 92.2956 10.5533 92.2956 10.952V20H89.4616ZM113.046 17.764H112.916C112.621 18.5613 112.136 19.1853 111.46 19.636C110.801 20.0867 110.021 20.312 109.12 20.312C107.404 20.312 106.078 19.6967 105.142 18.466C104.206 17.218 103.738 15.476 103.738 13.24C103.738 11.004 104.206 9.27067 105.142 8.04C106.078 6.792 107.404 6.168 109.12 6.168C110.021 6.168 110.801 6.39333 111.46 6.844C112.136 7.27733 112.621 7.90133 112.916 8.716H113.046V0.76H115.88V20H113.046V17.764ZM109.978 17.868C110.844 17.868 111.572 17.66 112.162 17.244C112.751 16.8107 113.046 16.2473 113.046 15.554V10.926C113.046 10.2327 112.751 9.678 112.162 9.262C111.572 8.82867 110.844 8.612 109.978 8.612C108.99 8.612 108.201 8.93267 107.612 9.574C107.022 10.198 106.728 11.03 106.728 12.07V14.41C106.728 15.45 107.022 16.2907 107.612 16.932C108.201 17.556 108.99 17.868 109.978 17.868ZM129.836 20C129.091 20 128.519 19.792 128.12 19.376C127.722 18.9427 127.479 18.3967 127.392 17.738H127.262C127.002 18.5873 126.526 19.2287 125.832 19.662C125.139 20.0953 124.298 20.312 123.31 20.312C121.906 20.312 120.823 19.948 120.06 19.22C119.315 18.492 118.942 17.5127 118.942 16.282C118.942 14.93 119.428 13.916 120.398 13.24C121.386 12.564 122.825 12.226 124.714 12.226H127.158V11.082C127.158 10.25 126.933 9.60867 126.482 9.158C126.032 8.70733 125.33 8.482 124.376 8.482C123.579 8.482 122.929 8.65533 122.426 9.002C121.924 9.34867 121.499 9.79067 121.152 10.328L119.462 8.794C119.913 8.03133 120.546 7.40733 121.36 6.922C122.175 6.41933 123.241 6.168 124.558 6.168C126.309 6.168 127.652 6.57533 128.588 7.39C129.524 8.20467 129.992 9.37467 129.992 10.9V17.686H131.422V20H129.836ZM124.116 18.154C125 18.154 125.728 17.9633 126.3 17.582C126.872 17.1833 127.158 16.6547 127.158 15.996V14.046H124.766C122.808 14.046 121.828 14.6527 121.828 15.866V16.334C121.828 16.9407 122.028 17.4 122.426 17.712C122.842 18.0067 123.406 18.154 124.116 18.154ZM138.49 20.312C137.207 20.312 136.133 20.0867 135.266 19.636C134.399 19.1853 133.645 18.5613 133.004 17.764L134.824 16.1C135.327 16.7067 135.881 17.1833 136.488 17.53C137.112 17.8593 137.831 18.024 138.646 18.024C139.478 18.024 140.093 17.868 140.492 17.556C140.908 17.2267 141.116 16.776 141.116 16.204C141.116 15.7707 140.969 15.4067 140.674 15.112C140.397 14.8 139.903 14.6007 139.192 14.514L137.944 14.358C136.557 14.1847 135.465 13.786 134.668 13.162C133.888 12.5207 133.498 11.576 133.498 10.328C133.498 9.66933 133.619 9.08867 133.862 8.586C134.105 8.066 134.443 7.63267 134.876 7.286C135.327 6.922 135.855 6.64467 136.462 6.454C137.086 6.26333 137.771 6.168 138.516 6.168C139.729 6.168 140.717 6.35867 141.48 6.74C142.26 7.12133 142.953 7.65 143.56 8.326L141.818 9.99C141.471 9.574 141.012 9.21867 140.44 8.924C139.885 8.612 139.244 8.456 138.516 8.456C137.736 8.456 137.155 8.612 136.774 8.924C136.41 9.236 136.228 9.64333 136.228 10.146C136.228 10.666 136.393 11.056 136.722 11.316C137.051 11.576 137.58 11.7667 138.308 11.888L139.556 12.044C141.047 12.2693 142.13 12.7113 142.806 13.37C143.499 14.0113 143.846 14.878 143.846 15.97C143.846 16.6287 143.716 17.2267 143.456 17.764C143.213 18.284 142.858 18.7347 142.39 19.116C141.922 19.4973 141.359 19.792 140.7 20C140.041 20.208 139.305 20.312 138.49 20.312ZM148.244 14.8L147.334 7.026V1.852H150.402V7.026L149.544 14.8H148.244ZM148.894 20.312C148.235 20.312 147.75 20.156 147.438 19.844C147.143 19.5147 146.996 19.0987 146.996 18.596V18.154C146.996 17.6513 147.143 17.244 147.438 16.932C147.75 16.6027 148.235 16.438 148.894 16.438C149.552 16.438 150.029 16.6027 150.324 16.932C150.636 17.244 150.792 17.6513 150.792 18.154V18.596C150.792 19.0987 150.636 19.5147 150.324 19.844C150.029 20.156 149.552 20.312 148.894 20.312Z" fill="white"/>
</svg>
