<svg width="190" height="50" viewBox="0 0 190 50" fill="none" xmlns="http://www.w3.org/2000/svg">
<g filter="url(#filter0_d_542_29)">
<path d="M177 2.5H9C5.41015 2.5 2.5 5.41015 2.5 9V37C2.5 40.5899 5.41015 43.5 9 43.5H177C180.59 43.5 183.5 40.5899 183.5 37V9C183.5 5.41015 180.59 2.5 177 2.5Z" fill="#FC7071" stroke="#FC7071"/>
<path d="M19.5021 30.968L17.8061 28.936C17.3368 29.0533 16.8568 29.112 16.3661 29.112C15.3208 29.112 14.3608 28.8667 13.4861 28.376C12.6115 27.8853 11.9181 27.208 11.4061 26.344C10.8941 25.4693 10.6381 24.4827 10.6381 23.384C10.6381 22.296 10.8941 21.32 11.4061 20.456C11.9181 19.5813 12.6115 18.8987 13.4861 18.408C14.3608 17.9173 15.3208 17.672 16.3661 17.672C17.4221 17.672 18.3821 17.9173 19.2461 18.408C20.1208 18.8987 20.8088 19.5813 21.3101 20.456C21.8221 21.32 22.0781 22.296 22.0781 23.384C22.0781 24.376 21.8648 25.2827 21.4381 26.104C21.0221 26.9147 20.4515 27.576 19.7261 28.088L22.2861 30.968H19.5021ZM12.9421 23.384C12.9421 24.1307 13.0861 24.7867 13.3741 25.352C13.6621 25.9173 14.0621 26.3547 14.5741 26.664C15.0968 26.9627 15.6941 27.112 16.3661 27.112C17.0381 27.112 17.6301 26.9627 18.1421 26.664C18.6541 26.3547 19.0541 25.9173 19.3421 25.352C19.6301 24.7867 19.7741 24.1307 19.7741 23.384C19.7741 22.6373 19.6301 21.9867 19.3421 21.432C19.0541 20.8667 18.6541 20.4347 18.1421 20.136C17.6301 19.8373 17.0381 19.688 16.3661 19.688C15.6941 19.688 15.0968 19.8373 14.5741 20.136C14.0621 20.4347 13.6621 20.8667 13.3741 21.432C13.0861 21.9867 12.9421 22.6373 12.9421 23.384ZM32.1439 20.136V29H29.8879V27.88C29.5999 28.264 29.2212 28.568 28.7519 28.792C28.2932 29.0053 27.7919 29.112 27.2479 29.112C26.5545 29.112 25.9412 28.968 25.4079 28.68C24.8745 28.3813 24.4532 27.9493 24.1439 27.384C23.8452 26.808 23.6959 26.1253 23.6959 25.336V20.136H25.9359V25.016C25.9359 25.72 26.1119 26.264 26.4639 26.648C26.8159 27.0213 27.2959 27.208 27.9039 27.208C28.5225 27.208 29.0079 27.0213 29.3599 26.648C29.7119 26.264 29.8879 25.72 29.8879 25.016V20.136H32.1439ZM42.594 24.376C42.594 24.696 42.5727 24.984 42.53 25.24H36.05C36.1033 25.88 36.3273 26.3813 36.722 26.744C37.1167 27.1067 37.602 27.288 38.178 27.288C39.01 27.288 39.602 26.9307 39.954 26.216H42.37C42.114 27.0693 41.6233 27.7733 40.898 28.328C40.1727 28.872 39.282 29.144 38.226 29.144C37.3727 29.144 36.6047 28.9573 35.922 28.584C35.25 28.2 34.722 27.6613 34.338 26.968C33.9647 26.2747 33.778 25.4747 33.778 24.568C33.778 23.6507 33.9647 22.8453 34.338 22.152C34.7113 21.4587 35.234 20.9253 35.906 20.552C36.578 20.1787 37.3513 19.992 38.226 19.992C39.0687 19.992 39.8207 20.1733 40.482 20.536C41.154 20.8987 41.6713 21.416 42.034 22.088C42.4073 22.7493 42.594 23.512 42.594 24.376ZM40.274 23.736C40.2633 23.16 40.0553 22.7013 39.65 22.36C39.2447 22.008 38.7487 21.832 38.162 21.832C37.6073 21.832 37.138 22.0027 36.754 22.344C36.3807 22.6747 36.1513 23.1387 36.066 23.736H40.274ZM46.469 21.512C46.757 21.0427 47.1303 20.6747 47.589 20.408C48.0583 20.1413 48.5917 20.008 49.189 20.008V22.36H48.597C47.893 22.36 47.3597 22.5253 46.997 22.856C46.645 23.1867 46.469 23.7627 46.469 24.584V29H44.229V20.136H46.469V21.512ZM54.6338 29.144C53.7804 29.144 53.0124 28.9573 52.3298 28.584C51.6471 28.2 51.1084 27.6613 50.7138 26.968C50.3298 26.2747 50.1378 25.4747 50.1378 24.568C50.1378 23.6613 50.3351 22.8613 50.7298 22.168C51.1351 21.4747 51.6844 20.9413 52.3778 20.568C53.0711 20.184 53.8444 19.992 54.6978 19.992C55.5511 19.992 56.3244 20.184 57.0178 20.568C57.7111 20.9413 58.2551 21.4747 58.6498 22.168C59.0551 22.8613 59.2578 23.6613 59.2578 24.568C59.2578 25.4747 59.0498 26.2747 58.6337 26.968C58.2284 27.6613 57.6738 28.2 56.9698 28.584C56.2764 28.9573 55.4978 29.144 54.6338 29.144ZM54.6338 27.192C55.0391 27.192 55.4178 27.096 55.7698 26.904C56.1324 26.7013 56.4204 26.4027 56.6338 26.008C56.8471 25.6133 56.9538 25.1333 56.9538 24.568C56.9538 23.7253 56.7298 23.08 56.2818 22.632C55.8444 22.1733 55.3058 21.944 54.6658 21.944C54.0258 21.944 53.4871 22.1733 53.0498 22.632C52.6231 23.08 52.4098 23.7253 52.4098 24.568C52.4098 25.4107 52.6178 26.0613 53.0338 26.52C53.4604 26.968 53.9938 27.192 54.6338 27.192ZM75.7214 20.008C76.8094 20.008 77.684 20.344 78.3454 21.016C79.0174 21.6773 79.3534 22.6053 79.3534 23.8V29H77.1134V24.104C77.1134 23.4107 76.9374 22.8827 76.5854 22.52C76.2334 22.1467 75.7534 21.96 75.1454 21.96C74.5374 21.96 74.052 22.1467 73.6894 22.52C73.3374 22.8827 73.1614 23.4107 73.1614 24.104V29H70.9214V24.104C70.9214 23.4107 70.7454 22.8827 70.3934 22.52C70.0414 22.1467 69.5614 21.96 68.9534 21.96C68.3347 21.96 67.844 22.1467 67.4814 22.52C67.1294 22.8827 66.9534 23.4107 66.9534 24.104V29H64.7134V20.136H66.9534V21.208C67.2414 20.8347 67.6094 20.5413 68.0574 20.328C68.516 20.1147 69.0174 20.008 69.5614 20.008C70.2547 20.008 70.8734 20.1573 71.4174 20.456C71.9614 20.744 72.3827 21.16 72.6814 21.704C72.9694 21.192 73.3854 20.7813 73.9294 20.472C74.484 20.1627 75.0814 20.008 75.7214 20.008ZM89.719 24.376C89.719 24.696 89.6977 24.984 89.655 25.24H83.175C83.2283 25.88 83.4523 26.3813 83.847 26.744C84.2417 27.1067 84.727 27.288 85.303 27.288C86.135 27.288 86.727 26.9307 87.079 26.216H89.495C89.239 27.0693 88.7483 27.7733 88.023 28.328C87.2977 28.872 86.407 29.144 85.351 29.144C84.4977 29.144 83.7297 28.9573 83.047 28.584C82.375 28.2 81.847 27.6613 81.463 26.968C81.0897 26.2747 80.903 25.4747 80.903 24.568C80.903 23.6507 81.0897 22.8453 81.463 22.152C81.8363 21.4587 82.359 20.9253 83.031 20.552C83.703 20.1787 84.4763 19.992 85.351 19.992C86.1937 19.992 86.9457 20.1733 87.607 20.536C88.279 20.8987 88.7963 21.416 89.159 22.088C89.5323 22.7493 89.719 23.512 89.719 24.376ZM87.399 23.736C87.3883 23.16 87.1803 22.7013 86.775 22.36C86.3697 22.008 85.8737 21.832 85.287 21.832C84.7323 21.832 84.263 22.0027 83.879 22.344C83.5057 22.6747 83.2763 23.1387 83.191 23.736H87.399ZM94.5905 24.568C94.5905 23.6507 94.7772 22.8507 95.1505 22.168C95.5238 21.4747 96.0412 20.9413 96.7025 20.568C97.3638 20.184 98.1212 19.992 98.9745 19.992C100.073 19.992 100.98 20.2693 101.695 20.824C102.42 21.368 102.905 22.136 103.151 23.128H100.735C100.607 22.744 100.388 22.4453 100.079 22.232C99.7798 22.008 99.4065 21.896 98.9585 21.896C98.3185 21.896 97.8118 22.1307 97.4385 22.6C97.0652 23.0587 96.8785 23.7147 96.8785 24.568C96.8785 25.4107 97.0652 26.0667 97.4385 26.536C97.8118 26.9947 98.3185 27.224 98.9585 27.224C99.8652 27.224 100.457 26.8187 100.735 26.008H103.151C102.905 26.968 102.42 27.7307 101.695 28.296C100.969 28.8613 100.063 29.144 98.9745 29.144C98.1212 29.144 97.3638 28.9573 96.7025 28.584C96.0412 28.2 95.5238 27.6667 95.1505 26.984C94.7772 26.2907 94.5905 25.4853 94.5905 24.568ZM104.215 24.536C104.215 23.64 104.391 22.8453 104.743 22.152C105.106 21.4587 105.592 20.9253 106.2 20.552C106.818 20.1787 107.506 19.992 108.264 19.992C108.925 19.992 109.501 20.1253 109.992 20.392C110.493 20.6587 110.893 20.9947 111.192 21.4V20.136H113.448V29H111.192V27.704C110.904 28.12 110.504 28.4667 109.992 28.744C109.49 29.0107 108.909 29.144 108.248 29.144C107.501 29.144 106.818 28.952 106.2 28.568C105.592 28.184 105.106 27.6453 104.743 26.952C104.391 26.248 104.215 25.4427 104.215 24.536ZM111.192 24.568C111.192 24.024 111.085 23.56 110.872 23.176C110.658 22.7813 110.37 22.4827 110.008 22.28C109.645 22.0667 109.256 21.96 108.84 21.96C108.424 21.96 108.04 22.0613 107.688 22.264C107.336 22.4667 107.048 22.7653 106.824 23.16C106.61 23.544 106.504 24.0027 106.504 24.536C106.504 25.0693 106.61 25.5387 106.824 25.944C107.048 26.3387 107.336 26.6427 107.688 26.856C108.05 27.0693 108.434 27.176 108.84 27.176C109.256 27.176 109.645 27.0747 110.008 26.872C110.37 26.6587 110.658 26.36 110.872 25.976C111.085 25.5813 111.192 25.112 111.192 24.568ZM115.059 24.536C115.059 23.64 115.235 22.8453 115.587 22.152C115.95 21.4587 116.441 20.9253 117.059 20.552C117.678 20.1787 118.366 19.992 119.123 19.992C119.699 19.992 120.249 20.12 120.771 20.376C121.294 20.6213 121.71 20.952 122.019 21.368V17.16H124.291V29H122.019V27.688C121.742 28.1253 121.353 28.4773 120.851 28.744C120.35 29.0107 119.769 29.144 119.107 29.144C118.361 29.144 117.678 28.952 117.059 28.568C116.441 28.184 115.95 27.6453 115.587 26.952C115.235 26.248 115.059 25.4427 115.059 24.536ZM122.035 24.568C122.035 24.024 121.929 23.56 121.715 23.176C121.502 22.7813 121.214 22.4827 120.851 22.28C120.489 22.0667 120.099 21.96 119.683 21.96C119.267 21.96 118.883 22.0613 118.531 22.264C118.179 22.4667 117.891 22.7653 117.667 23.16C117.454 23.544 117.347 24.0027 117.347 24.536C117.347 25.0693 117.454 25.5387 117.667 25.944C117.891 26.3387 118.179 26.6427 118.531 26.856C118.894 27.0693 119.278 27.176 119.683 27.176C120.099 27.176 120.489 27.0747 120.851 26.872C121.214 26.6587 121.502 26.36 121.715 25.976C121.929 25.5813 122.035 25.112 122.035 24.568ZM125.903 24.536C125.903 23.64 126.079 22.8453 126.431 22.152C126.794 21.4587 127.279 20.9253 127.887 20.552C128.506 20.1787 129.194 19.992 129.951 19.992C130.612 19.992 131.188 20.1253 131.679 20.392C132.18 20.6587 132.58 20.9947 132.879 21.4V20.136H135.135V29H132.879V27.704C132.591 28.12 132.191 28.4667 131.679 28.744C131.178 29.0107 130.596 29.144 129.935 29.144C129.188 29.144 128.506 28.952 127.887 28.568C127.279 28.184 126.794 27.6453 126.431 26.952C126.079 26.248 125.903 25.4427 125.903 24.536ZM132.879 24.568C132.879 24.024 132.772 23.56 132.559 23.176C132.346 22.7813 132.058 22.4827 131.695 22.28C131.332 22.0667 130.943 21.96 130.527 21.96C130.111 21.96 129.727 22.0613 129.375 22.264C129.023 22.4667 128.735 22.7653 128.511 23.16C128.298 23.544 128.191 24.0027 128.191 24.536C128.191 25.0693 128.298 25.5387 128.511 25.944C128.735 26.3387 129.023 26.6427 129.375 26.856C129.738 27.0693 130.122 27.176 130.527 27.176C130.943 27.176 131.332 27.0747 131.695 26.872C132.058 26.6587 132.346 26.36 132.559 25.976C132.772 25.5813 132.879 25.112 132.879 24.568ZM140.715 29.144C139.989 29.144 139.339 29.016 138.763 28.76C138.187 28.4933 137.728 28.136 137.387 27.688C137.056 27.24 136.875 26.744 136.843 26.2H139.099C139.141 26.5413 139.307 26.824 139.595 27.048C139.893 27.272 140.261 27.384 140.699 27.384C141.125 27.384 141.456 27.2987 141.691 27.128C141.936 26.9573 142.059 26.7387 142.059 26.472C142.059 26.184 141.909 25.9707 141.611 25.832C141.323 25.6827 140.859 25.5227 140.219 25.352C139.557 25.192 139.013 25.0267 138.587 24.856C138.171 24.6853 137.808 24.424 137.499 24.072C137.2 23.72 137.051 23.2453 137.051 22.648C137.051 22.1573 137.189 21.7093 137.467 21.304C137.755 20.8987 138.16 20.5787 138.683 20.344C139.216 20.1093 139.84 19.992 140.555 19.992C141.611 19.992 142.453 20.2587 143.083 20.792C143.712 21.3147 144.059 22.024 144.123 22.92H141.979C141.947 22.568 141.797 22.2907 141.531 22.088C141.275 21.8747 140.928 21.768 140.491 21.768C140.085 21.768 139.771 21.8427 139.547 21.992C139.333 22.1413 139.227 22.3493 139.227 22.616C139.227 22.9147 139.376 23.144 139.675 23.304C139.973 23.4533 140.437 23.608 141.067 23.768C141.707 23.928 142.235 24.0933 142.651 24.264C143.067 24.4347 143.424 24.7013 143.723 25.064C144.032 25.416 144.192 25.8853 144.203 26.472C144.203 26.984 144.059 27.4427 143.771 27.848C143.493 28.2533 143.088 28.5733 142.555 28.808C142.032 29.032 141.419 29.144 140.715 29.144ZM148.65 21.976V26.264C148.65 26.5627 148.719 26.7813 148.858 26.92C149.007 27.048 149.252 27.112 149.594 27.112H150.634V29H149.226C147.338 29 146.394 28.0827 146.394 26.248V21.976H145.338V20.136H146.394V17.944H148.65V20.136H150.634V21.976H148.65ZM154.485 21.512C154.773 21.0427 155.146 20.6747 155.605 20.408C156.074 20.1413 156.607 20.008 157.205 20.008V22.36H156.613C155.909 22.36 155.375 22.5253 155.013 22.856C154.661 23.1867 154.485 23.7627 154.485 24.584V29H152.245V20.136H154.485V21.512ZM158.137 24.536C158.137 23.64 158.313 22.8453 158.665 22.152C159.028 21.4587 159.513 20.9253 160.121 20.552C160.74 20.1787 161.428 19.992 162.185 19.992C162.847 19.992 163.423 20.1253 163.913 20.392C164.415 20.6587 164.815 20.9947 165.113 21.4V20.136H167.369V29H165.113V27.704C164.825 28.12 164.425 28.4667 163.913 28.744C163.412 29.0107 162.831 29.144 162.169 29.144C161.423 29.144 160.74 28.952 160.121 28.568C159.513 28.184 159.028 27.6453 158.665 26.952C158.313 26.248 158.137 25.4427 158.137 24.536ZM165.113 24.568C165.113 24.024 165.007 23.56 164.793 23.176C164.58 22.7813 164.292 22.4827 163.929 22.28C163.567 22.0667 163.177 21.96 162.761 21.96C162.345 21.96 161.961 22.0613 161.609 22.264C161.257 22.4667 160.969 22.7653 160.745 23.16C160.532 23.544 160.425 24.0027 160.425 24.536C160.425 25.0693 160.532 25.5387 160.745 25.944C160.969 26.3387 161.257 26.6427 161.609 26.856C161.972 27.0693 162.356 27.176 162.761 27.176C163.177 27.176 163.567 27.0747 163.929 26.872C164.292 26.6587 164.58 26.36 164.793 25.976C165.007 25.5813 165.113 25.112 165.113 24.568ZM171.797 21.512C172.085 21.0427 172.458 20.6747 172.917 20.408C173.386 20.1413 173.92 20.008 174.517 20.008V22.36H173.925C173.221 22.36 172.688 22.5253 172.325 22.856C171.973 23.1867 171.797 23.7627 171.797 24.584V29H169.557V20.136H171.797V21.512Z" fill="white"/>
</g>
<defs>
<filter id="filter0_d_542_29" x="0" y="0" width="190" height="50" filterUnits="userSpaceOnUse" color-interpolation-filters="sRGB">
<feFlood flood-opacity="0" result="BackgroundImageFix"/>
<feColorMatrix in="SourceAlpha" type="matrix" values="0 0 0 0 0 0 0 0 0 0 0 0 0 0 0 0 0 0 127 0" result="hardAlpha"/>
<feOffset dx="2" dy="2"/>
<feGaussianBlur stdDeviation="2"/>
<feComposite in2="hardAlpha" operator="out"/>
<feColorMatrix type="matrix" values="0 0 0 0 0 0 0 0 0 0 0 0 0 0 0 0 0 0 0.25 0"/>
<feBlend mode="normal" in2="BackgroundImageFix" result="effect1_dropShadow_542_29"/>
<feBlend mode="normal" in="SourceGraphic" in2="effect1_dropShadow_542_29" result="shape"/>
</filter>
</defs>
</svg>
