<svg width="188" height="48" viewBox="0 0 188 48" fill="none" xmlns="http://www.w3.org/2000/svg">
<g filter="url(#filter0_d_518_337)">
<path d="M2 8C2 4.68629 4.68629 2 8 2H176C179.314 2 182 4.68629 182 8V36C182 39.3137 179.314 42 176 42H8C4.6863 42 2 39.3137 2 36V8Z" fill="#FC7071"/>
<path d="M2 8C2 4.68629 4.68629 2 8 2H176C179.314 2 182 4.68629 182 8V36C182 39.3137 179.314 42 176 42H8C4.6863 42 2 39.3137 2 36V8Z" stroke="#3772FF"/>
<path d="M37.8738 16.832V24.672C37.8738 25.76 37.5591 26.608 36.9298 27.216C36.3005 27.8133 35.4578 28.112 34.4018 28.112C33.3351 28.112 32.4711 27.8027 31.8098 27.184C31.1591 26.5653 30.8338 25.7013 30.8338 24.592H33.0738C33.0845 25.072 33.1965 25.4453 33.4098 25.712C33.6338 25.9787 33.9538 26.112 34.3698 26.112C34.7751 26.112 35.0845 25.984 35.2978 25.728C35.5111 25.472 35.6178 25.12 35.6178 24.672V16.832H37.8738ZM39.9108 23.536C39.9108 22.64 40.0868 21.8453 40.4388 21.152C40.8015 20.4587 41.2868 19.9253 41.8948 19.552C42.5135 19.1787 43.2015 18.992 43.9588 18.992C44.6201 18.992 45.1961 19.1253 45.6868 19.392C46.1881 19.6587 46.5881 19.9947 46.8868 20.4V19.136H49.1428V28H46.8868V26.704C46.5988 27.12 46.1988 27.4667 45.6868 27.744C45.1855 28.0107 44.6041 28.144 43.9428 28.144C43.1961 28.144 42.5135 27.952 41.8948 27.568C41.2868 27.184 40.8015 26.6453 40.4388 25.952C40.0868 25.248 39.9108 24.4427 39.9108 23.536ZM46.8868 23.568C46.8868 23.024 46.7801 22.56 46.5668 22.176C46.3535 21.7813 46.0655 21.4827 45.7028 21.28C45.3401 21.0667 44.9508 20.96 44.5348 20.96C44.1188 20.96 43.7348 21.0613 43.3828 21.264C43.0308 21.4667 42.7428 21.7653 42.5188 22.16C42.3055 22.544 42.1988 23.0027 42.1988 23.536C42.1988 24.0693 42.3055 24.5387 42.5188 24.944C42.7428 25.3387 43.0308 25.6427 43.3828 25.856C43.7455 26.0693 44.1295 26.176 44.5348 26.176C44.9508 26.176 45.3401 26.0747 45.7028 25.872C46.0655 25.6587 46.3535 25.36 46.5668 24.976C46.7801 24.5813 46.8868 24.112 46.8868 23.568ZM46.5828 16.832L42.9028 18.512V16.912L46.5828 15.008V16.832ZM57.7511 20.976V25.264C57.7511 25.5627 57.8204 25.7813 57.9591 25.92C58.1084 26.048 58.3537 26.112 58.6951 26.112H59.7351V28H58.3271C56.4391 28 55.4951 27.0827 55.4951 25.248V20.976H54.4391V19.136H55.4951V16.944H57.7511V19.136H59.7351V20.976H57.7511ZM69.5862 23.376C69.5862 23.696 69.5649 23.984 69.5222 24.24H63.0422C63.0955 24.88 63.3195 25.3813 63.7142 25.744C64.1089 26.1067 64.5942 26.288 65.1702 26.288C66.0022 26.288 66.5942 25.9307 66.9462 25.216H69.3622C69.1062 26.0693 68.6155 26.7733 67.8902 27.328C67.1649 27.872 66.2742 28.144 65.2182 28.144C64.3649 28.144 63.5969 27.9573 62.9142 27.584C62.2422 27.2 61.7142 26.6613 61.3302 25.968C60.9569 25.2747 60.7702 24.4747 60.7702 23.568C60.7702 22.6507 60.9569 21.8453 61.3302 21.152C61.7035 20.4587 62.2262 19.9253 62.8982 19.552C63.5702 19.1787 64.3435 18.992 65.2182 18.992C66.0609 18.992 66.8129 19.1733 67.4742 19.536C68.1462 19.8987 68.6635 20.416 69.0262 21.088C69.3995 21.7493 69.5862 22.512 69.5862 23.376ZM67.2662 22.736C67.2555 22.16 67.0475 21.7013 66.6422 21.36C66.2369 21.008 65.7409 20.832 65.1542 20.832C64.5995 20.832 64.1302 21.0027 63.7462 21.344C63.3729 21.6747 63.1435 22.1387 63.0582 22.736H67.2662ZM76.1332 19.008C77.1892 19.008 78.0425 19.344 78.6932 20.016C79.3439 20.6773 79.6692 21.6053 79.6692 22.8V28H77.4292V23.104C77.4292 22.4 77.2532 21.8613 76.9012 21.488C76.5492 21.104 76.0692 20.912 75.4612 20.912C74.8425 20.912 74.3519 21.104 73.9892 21.488C73.6372 21.8613 73.4612 22.4 73.4612 23.104V28H71.2212V19.136H73.4612V20.24C73.7599 19.856 74.1385 19.5573 74.5972 19.344C75.0665 19.12 75.5785 19.008 76.1332 19.008ZM86.7913 19.008C87.4633 19.008 88.0606 19.1573 88.5833 19.456C89.106 19.744 89.5113 20.176 89.7993 20.752C90.098 21.3173 90.2473 22 90.2473 22.8V28H88.0073V23.104C88.0073 22.4 87.8313 21.8613 87.4793 21.488C87.1273 21.104 86.6473 20.912 86.0393 20.912C85.4206 20.912 84.93 21.104 84.5673 21.488C84.2153 21.8613 84.0393 22.4 84.0393 23.104V28H81.7993V16.16H84.0393V20.24C84.3273 19.856 84.7113 19.5573 85.1913 19.344C85.6713 19.12 86.2046 19.008 86.7913 19.008ZM96.3134 28.144C95.4601 28.144 94.6921 27.9573 94.0094 27.584C93.3268 27.2 92.7881 26.6613 92.3934 25.968C92.0094 25.2747 91.8174 24.4747 91.8174 23.568C91.8174 22.6613 92.0148 21.8613 92.4094 21.168C92.8148 20.4747 93.3641 19.9413 94.0574 19.568C94.7508 19.184 95.5241 18.992 96.3774 18.992C97.2308 18.992 98.0041 19.184 98.6974 19.568C99.3908 19.9413 99.9348 20.4747 100.329 21.168C100.735 21.8613 100.937 22.6613 100.937 23.568C100.937 24.4747 100.729 25.2747 100.313 25.968C99.9081 26.6613 99.3534 27.2 98.6494 27.584C97.9561 27.9573 97.1774 28.144 96.3134 28.144ZM96.3134 26.192C96.7188 26.192 97.0974 26.096 97.4494 25.904C97.8121 25.7013 98.1001 25.4027 98.3134 25.008C98.5268 24.6133 98.6334 24.1333 98.6334 23.568C98.6334 22.7253 98.4094 22.08 97.9614 21.632C97.5241 21.1733 96.9854 20.944 96.3454 20.944C95.7054 20.944 95.1668 21.1733 94.7294 21.632C94.3028 22.08 94.0894 22.7253 94.0894 23.568C94.0894 24.4107 94.2974 25.0613 94.7134 25.52C95.1401 25.968 95.6734 26.192 96.3134 26.192ZM105.817 23.568C105.817 22.6507 106.004 21.8507 106.377 21.168C106.75 20.4747 107.268 19.9413 107.929 19.568C108.59 19.184 109.348 18.992 110.201 18.992C111.3 18.992 112.206 19.2693 112.921 19.824C113.646 20.368 114.132 21.136 114.377 22.128H111.961C111.833 21.744 111.614 21.4453 111.305 21.232C111.006 21.008 110.633 20.896 110.185 20.896C109.545 20.896 109.038 21.1307 108.665 21.6C108.292 22.0587 108.105 22.7147 108.105 23.568C108.105 24.4107 108.292 25.0667 108.665 25.536C109.038 25.9947 109.545 26.224 110.185 26.224C111.092 26.224 111.684 25.8187 111.961 25.008H114.377C114.132 25.968 113.646 26.7307 112.921 27.296C112.196 27.8613 111.289 28.144 110.201 28.144C109.348 28.144 108.59 27.9573 107.929 27.584C107.268 27.2 106.75 26.6667 106.377 25.984C106.004 25.2907 105.817 24.4853 105.817 23.568ZM119.954 28.144C119.101 28.144 118.333 27.9573 117.65 27.584C116.967 27.2 116.429 26.6613 116.034 25.968C115.65 25.2747 115.458 24.4747 115.458 23.568C115.458 22.6613 115.655 21.8613 116.05 21.168C116.455 20.4747 117.005 19.9413 117.698 19.568C118.391 19.184 119.165 18.992 120.018 18.992C120.871 18.992 121.645 19.184 122.338 19.568C123.031 19.9413 123.575 20.4747 123.97 21.168C124.375 21.8613 124.578 22.6613 124.578 23.568C124.578 24.4747 124.37 25.2747 123.954 25.968C123.549 26.6613 122.994 27.2 122.29 27.584C121.597 27.9573 120.818 28.144 119.954 28.144ZM119.954 26.192C120.359 26.192 120.738 26.096 121.09 25.904C121.453 25.7013 121.741 25.4027 121.954 25.008C122.167 24.6133 122.274 24.1333 122.274 23.568C122.274 22.7253 122.05 22.08 121.602 21.632C121.165 21.1733 120.626 20.944 119.986 20.944C119.346 20.944 118.807 21.1733 118.37 21.632C117.943 22.08 117.73 22.7253 117.73 23.568C117.73 24.4107 117.938 25.0613 118.354 25.52C118.781 25.968 119.314 26.192 119.954 26.192ZM131.133 19.008C132.189 19.008 133.043 19.344 133.693 20.016C134.344 20.6773 134.669 21.6053 134.669 22.8V28H132.429V23.104C132.429 22.4 132.253 21.8613 131.901 21.488C131.549 21.104 131.069 20.912 130.461 20.912C129.843 20.912 129.352 21.104 128.989 21.488C128.637 21.8613 128.461 22.4 128.461 23.104V28H126.221V19.136H128.461V20.24C128.76 19.856 129.139 19.5573 129.597 19.344C130.067 19.12 130.579 19.008 131.133 19.008ZM139.407 20.976V25.264C139.407 25.5627 139.477 25.7813 139.615 25.92C139.765 26.048 140.01 26.112 140.351 26.112H141.391V28H139.983C138.095 28 137.151 27.0827 137.151 25.248V20.976H136.095V19.136H137.151V16.944H139.407V19.136H141.391V20.976H139.407ZM142.426 23.536C142.426 22.64 142.602 21.8453 142.954 21.152C143.317 20.4587 143.802 19.9253 144.41 19.552C145.029 19.1787 145.717 18.992 146.474 18.992C147.136 18.992 147.712 19.1253 148.202 19.392C148.704 19.6587 149.104 19.9947 149.402 20.4V19.136H151.658V28H149.402V26.704C149.114 27.12 148.714 27.4667 148.202 27.744C147.701 28.0107 147.12 28.144 146.458 28.144C145.712 28.144 145.029 27.952 144.41 27.568C143.802 27.184 143.317 26.6453 142.954 25.952C142.602 25.248 142.426 24.4427 142.426 23.536ZM149.402 23.568C149.402 23.024 149.296 22.56 149.082 22.176C148.869 21.7813 148.581 21.4827 148.218 21.28C147.856 21.0667 147.466 20.96 147.05 20.96C146.634 20.96 146.25 21.0613 145.898 21.264C145.546 21.4667 145.258 21.7653 145.034 22.16C144.821 22.544 144.714 23.0027 144.714 23.536C144.714 24.0693 144.821 24.5387 145.034 24.944C145.258 25.3387 145.546 25.6427 145.898 25.856C146.261 26.0693 146.645 26.176 147.05 26.176C147.466 26.176 147.856 26.0747 148.218 25.872C148.581 25.6587 148.869 25.36 149.082 24.976C149.296 24.5813 149.402 24.112 149.402 23.568Z" fill="white"/>
</g>
<defs>
<filter id="filter0_d_518_337" x="0" y="0" width="188" height="48" filterUnits="userSpaceOnUse" color-interpolation-filters="sRGB">
<feFlood flood-opacity="0" result="BackgroundImageFix"/>
<feColorMatrix in="SourceAlpha" type="matrix" values="0 0 0 0 0 0 0 0 0 0 0 0 0 0 0 0 0 0 127 0" result="hardAlpha"/>
<feOffset dx="2" dy="2"/>
<feGaussianBlur stdDeviation="2"/>
<feComposite in2="hardAlpha" operator="out"/>
<feColorMatrix type="matrix" values="0 0 0 0 0 0 0 0 0 0 0 0 0 0 0 0 0 0 0.25 0"/>
<feBlend mode="normal" in2="BackgroundImageFix" result="effect1_dropShadow_518_337"/>
<feBlend mode="normal" in="SourceGraphic" in2="effect1_dropShadow_518_337" result="shape"/>
</filter>
</defs>
</svg>
