<svg width="218" height="66" viewBox="0 0 218 66" fill="none" xmlns="http://www.w3.org/2000/svg">
<path d="M24.8479 15.112L22.6239 12.888C22.0799 13.0373 21.5252 13.112 20.9599 13.112C19.9252 13.112 18.9812 12.872 18.1279 12.392C17.2745 11.9013 16.5972 11.224 16.0959 10.36C15.6052 9.48533 15.3599 8.504 15.3599 7.416C15.3599 6.328 15.6052 5.352 16.0959 4.488C16.5972 3.61333 17.2745 2.936 18.1279 2.456C18.9812 1.96533 19.9252 1.72 20.9599 1.72C22.0052 1.72 22.9545 1.96533 23.8079 2.456C24.6612 2.936 25.3332 3.608 25.8239 4.472C26.3145 5.336 26.5599 6.31733 26.5599 7.416C26.5599 8.48267 26.3252 9.44267 25.8559 10.296C25.3865 11.1493 24.7412 11.8213 23.9199 12.312L26.7359 15.112H24.8479ZM16.8479 7.416C16.8479 8.30133 17.0239 9.08 17.3759 9.752C17.7385 10.424 18.2292 10.9413 18.8479 11.304C19.4772 11.6667 20.1812 11.848 20.9599 11.848C21.7385 11.848 22.4372 11.6667 23.0559 11.304C23.6852 10.9413 24.1759 10.424 24.5279 9.752C24.8905 9.08 25.0719 8.30133 25.0719 7.416C25.0719 6.52 24.8905 5.74133 24.5279 5.08C24.1759 4.408 23.6905 3.89067 23.0719 3.528C22.4532 3.16533 21.7492 2.984 20.9599 2.984C20.1705 2.984 19.4665 3.16533 18.8479 3.528C18.2292 3.89067 17.7385 4.408 17.3759 5.08C17.0239 5.74133 16.8479 6.52 16.8479 7.416ZM36.2893 4.232V13H34.8333V11.704C34.5559 12.152 34.1666 12.504 33.6653 12.76C33.1746 13.0053 32.6306 13.128 32.0333 13.128C31.3506 13.128 30.7373 12.9893 30.1933 12.712C29.6493 12.424 29.2173 11.9973 28.8973 11.432C28.5879 10.8667 28.4333 10.1787 28.4333 9.368V4.232H29.8733V9.176C29.8733 10.04 30.0919 10.7067 30.5293 11.176C30.9666 11.6347 31.5639 11.864 32.3213 11.864C33.0999 11.864 33.7133 11.624 34.1613 11.144C34.6093 10.664 34.8333 9.96533 34.8333 9.048V4.232H36.2893ZM46.7476 8.28C46.7476 8.55733 46.7316 8.85067 46.6996 9.16H39.6916C39.745 10.024 40.0383 10.7013 40.5716 11.192C41.1156 11.672 41.7716 11.912 42.5396 11.912C43.169 11.912 43.6916 11.768 44.1076 11.48C44.5343 11.1813 44.833 10.7867 45.0036 10.296H46.5716C46.337 11.1387 45.8676 11.8267 45.1636 12.36C44.4596 12.8827 43.585 13.144 42.5396 13.144C41.7076 13.144 40.961 12.9573 40.2996 12.584C39.649 12.2107 39.137 11.6827 38.7636 11C38.3903 10.3067 38.2036 9.50667 38.2036 8.6C38.2036 7.69333 38.385 6.89867 38.7476 6.216C39.1103 5.53333 39.617 5.01067 40.2676 4.648C40.929 4.27467 41.6863 4.088 42.5396 4.088C43.3716 4.088 44.1076 4.26933 44.7476 4.632C45.3876 4.99467 45.8783 5.496 46.2196 6.136C46.5716 6.76533 46.7476 7.48 46.7476 8.28ZM45.2436 7.976C45.2436 7.42133 45.121 6.94667 44.8756 6.552C44.6303 6.14667 44.2943 5.84267 43.8676 5.64C43.4516 5.42667 42.9876 5.32 42.4756 5.32C41.7396 5.32 41.1103 5.55467 40.5876 6.024C40.0756 6.49333 39.7823 7.144 39.7076 7.976H45.2436ZM54.7111 5.432V10.6C54.7111 11.0267 54.8018 11.3307 54.9831 11.512C55.1645 11.6827 55.4791 11.768 55.9271 11.768H56.9991V13H55.6871C54.8765 13 54.2685 12.8133 53.8631 12.44C53.4578 12.0667 53.2551 11.4533 53.2551 10.6V5.432H52.1191V4.232H53.2551V2.024H54.7111V4.232H56.9991V5.432H54.7111ZM58.2193 8.584C58.2193 7.688 58.4006 6.904 58.7633 6.232C59.1259 5.54933 59.6219 5.02133 60.2513 4.648C60.8913 4.27467 61.6006 4.088 62.3793 4.088C63.1473 4.088 63.8139 4.25333 64.3793 4.584C64.9446 4.91467 65.3659 5.33067 65.6433 5.832V4.232H67.1153V13H65.6433V11.368C65.3553 11.88 64.9233 12.3067 64.3473 12.648C63.7819 12.9787 63.1206 13.144 62.3633 13.144C61.5846 13.144 60.8806 12.952 60.2513 12.568C59.6219 12.184 59.1259 11.6453 58.7633 10.952C58.4006 10.2587 58.2193 9.46933 58.2193 8.584ZM65.6433 8.6C65.6433 7.93867 65.5099 7.36267 65.2433 6.872C64.9766 6.38133 64.6139 6.008 64.1553 5.752C63.7073 5.48533 63.2113 5.352 62.6673 5.352C62.1233 5.352 61.6273 5.48 61.1793 5.736C60.7313 5.992 60.3739 6.36533 60.1073 6.856C59.8406 7.34667 59.7073 7.92267 59.7073 8.584C59.7073 9.256 59.8406 9.84267 60.1073 10.344C60.3739 10.8347 60.7313 11.2133 61.1793 11.48C61.6273 11.736 62.1233 11.864 62.6673 11.864C63.2113 11.864 63.7073 11.736 64.1553 11.48C64.6139 11.2133 64.9766 10.8347 65.2433 10.344C65.5099 9.84267 65.6433 9.26133 65.6433 8.6ZM71.0318 1.16V13H69.5758V1.16H71.0318ZM88.3229 4.072C89.0055 4.072 89.6135 4.216 90.1469 4.504C90.6802 4.78133 91.1015 5.20267 91.4109 5.768C91.7202 6.33333 91.8749 7.02133 91.8749 7.832V13H90.4349V8.04C90.4349 7.16533 90.2162 6.49867 89.7789 6.04C89.3522 5.57067 88.7709 5.336 88.0349 5.336C87.2775 5.336 86.6749 5.58133 86.2269 6.072C85.7789 6.552 85.5549 7.25067 85.5549 8.168V13H84.1149V8.04C84.1149 7.16533 83.8962 6.49867 83.4589 6.04C83.0322 5.57067 82.4509 5.336 81.7149 5.336C80.9575 5.336 80.3549 5.58133 79.9069 6.072C79.4589 6.552 79.2349 7.25067 79.2349 8.168V13H77.7789V4.232H79.2349V5.496C79.5229 5.03733 79.9069 4.68533 80.3869 4.44C80.8775 4.19467 81.4162 4.072 82.0029 4.072C82.7389 4.072 83.3895 4.23733 83.9549 4.568C84.5202 4.89867 84.9415 5.384 85.2189 6.024C85.4642 5.40533 85.8695 4.92533 86.4349 4.584C87.0002 4.24267 87.6295 4.072 88.3229 4.072ZM102.039 4.232V13H100.583V11.704C100.306 12.152 99.9166 12.504 99.4153 12.76C98.9246 13.0053 98.3806 13.128 97.7833 13.128C97.1006 13.128 96.4873 12.9893 95.9433 12.712C95.3993 12.424 94.9673 11.9973 94.6473 11.432C94.3379 10.8667 94.1833 10.1787 94.1833 9.368V4.232H95.6233V9.176C95.6233 10.04 95.8419 10.7067 96.2793 11.176C96.7166 11.6347 97.3139 11.864 98.0713 11.864C98.8499 11.864 99.4633 11.624 99.9113 11.144C100.359 10.664 100.583 9.96533 100.583 9.048V4.232H102.039ZM103.954 8.584C103.954 7.688 104.135 6.904 104.498 6.232C104.86 5.54933 105.356 5.02133 105.986 4.648C106.626 4.27467 107.34 4.088 108.13 4.088C108.812 4.088 109.447 4.248 110.034 4.568C110.62 4.87733 111.068 5.288 111.378 5.8V1.16H112.85V13H111.378V11.352C111.09 11.8747 110.663 12.3067 110.098 12.648C109.532 12.9787 108.871 13.144 108.114 13.144C107.335 13.144 106.626 12.952 105.986 12.568C105.356 12.184 104.86 11.6453 104.498 10.952C104.135 10.2587 103.954 9.46933 103.954 8.584ZM111.378 8.6C111.378 7.93867 111.244 7.36267 110.978 6.872C110.711 6.38133 110.348 6.008 109.89 5.752C109.442 5.48533 108.946 5.352 108.402 5.352C107.858 5.352 107.362 5.48 106.914 5.736C106.466 5.992 106.108 6.36533 105.842 6.856C105.575 7.34667 105.442 7.92267 105.442 8.584C105.442 9.256 105.575 9.84267 105.842 10.344C106.108 10.8347 106.466 11.2133 106.914 11.48C107.362 11.736 107.858 11.864 108.402 11.864C108.946 11.864 109.442 11.736 109.89 11.48C110.348 11.2133 110.711 10.8347 110.978 10.344C111.244 9.84267 111.378 9.26133 111.378 8.6ZM114.766 8.584C114.766 7.688 114.947 6.904 115.31 6.232C115.673 5.54933 116.169 5.02133 116.798 4.648C117.438 4.27467 118.147 4.088 118.926 4.088C119.694 4.088 120.361 4.25333 120.926 4.584C121.491 4.91467 121.913 5.33067 122.19 5.832V4.232H123.662V13H122.19V11.368C121.902 11.88 121.47 12.3067 120.894 12.648C120.329 12.9787 119.667 13.144 118.91 13.144C118.131 13.144 117.427 12.952 116.798 12.568C116.169 12.184 115.673 11.6453 115.31 10.952C114.947 10.2587 114.766 9.46933 114.766 8.584ZM122.19 8.6C122.19 7.93867 122.057 7.36267 121.79 6.872C121.523 6.38133 121.161 6.008 120.702 5.752C120.254 5.48533 119.758 5.352 119.214 5.352C118.67 5.352 118.174 5.48 117.726 5.736C117.278 5.992 116.921 6.36533 116.654 6.856C116.387 7.34667 116.254 7.92267 116.254 8.584C116.254 9.256 116.387 9.84267 116.654 10.344C116.921 10.8347 117.278 11.2133 117.726 11.48C118.174 11.736 118.67 11.864 119.214 11.864C119.758 11.864 120.254 11.736 120.702 11.48C121.161 11.2133 121.523 10.8347 121.79 10.344C122.057 9.84267 122.19 9.26133 122.19 8.6ZM127.579 5.656C127.835 5.15467 128.197 4.76533 128.667 4.488C129.147 4.21067 129.728 4.072 130.411 4.072V5.576H130.027C128.395 5.576 127.579 6.46133 127.579 8.232V13H126.123V4.232H127.579V5.656ZM139.461 13.144C138.789 13.144 138.186 13.032 137.653 12.808C137.12 12.5733 136.698 12.2533 136.389 11.848C136.08 11.432 135.909 10.9573 135.877 10.424H137.381C137.424 10.8613 137.626 11.2187 137.989 11.496C138.362 11.7733 138.848 11.912 139.445 11.912C140 11.912 140.437 11.7893 140.757 11.544C141.077 11.2987 141.237 10.9893 141.237 10.616C141.237 10.232 141.066 9.94933 140.725 9.768C140.384 9.576 139.856 9.38933 139.141 9.208C138.49 9.03733 137.957 8.86667 137.541 8.696C137.136 8.51467 136.784 8.25333 136.485 7.912C136.197 7.56 136.053 7.10133 136.053 6.536C136.053 6.088 136.186 5.67733 136.453 5.304C136.72 4.93067 137.098 4.63733 137.589 4.424C138.08 4.2 138.64 4.088 139.269 4.088C140.24 4.088 141.024 4.33333 141.621 4.824C142.218 5.31467 142.538 5.98667 142.581 6.84H141.125C141.093 6.38133 140.906 6.01333 140.565 5.736C140.234 5.45867 139.786 5.32 139.221 5.32C138.698 5.32 138.282 5.432 137.973 5.656C137.664 5.88 137.509 6.17333 137.509 6.536C137.509 6.824 137.6 7.064 137.781 7.256C137.973 7.43733 138.208 7.58667 138.485 7.704C138.773 7.81067 139.168 7.93333 139.669 8.072C140.298 8.24267 140.81 8.41333 141.205 8.584C141.6 8.744 141.936 8.98933 142.213 9.32C142.501 9.65067 142.65 10.0827 142.661 10.616C142.661 11.096 142.528 11.528 142.261 11.912C141.994 12.296 141.616 12.6 141.125 12.824C140.645 13.0373 140.09 13.144 139.461 13.144ZM152.492 4.232V13H151.036V11.704C150.759 12.152 150.37 12.504 149.868 12.76C149.378 13.0053 148.834 13.128 148.236 13.128C147.554 13.128 146.94 12.9893 146.396 12.712C145.852 12.424 145.42 11.9973 145.1 11.432C144.791 10.8667 144.636 10.1787 144.636 9.368V4.232H146.076V9.176C146.076 10.04 146.295 10.7067 146.732 11.176C147.17 11.6347 147.767 11.864 148.524 11.864C149.303 11.864 149.916 11.624 150.364 11.144C150.812 10.664 151.036 9.96533 151.036 9.048V4.232H152.492ZM154.407 8.584C154.407 7.688 154.588 6.904 154.951 6.232C155.313 5.54933 155.809 5.02133 156.439 4.648C157.079 4.27467 157.788 4.088 158.567 4.088C159.335 4.088 160.001 4.25333 160.567 4.584C161.132 4.91467 161.553 5.33067 161.831 5.832V4.232H163.303V13H161.831V11.368C161.543 11.88 161.111 12.3067 160.535 12.648C159.969 12.9787 159.308 13.144 158.551 13.144C157.772 13.144 157.068 12.952 156.439 12.568C155.809 12.184 155.313 11.6453 154.951 10.952C154.588 10.2587 154.407 9.46933 154.407 8.584ZM161.831 8.6C161.831 7.93867 161.697 7.36267 161.431 6.872C161.164 6.38133 160.801 6.008 160.343 5.752C159.895 5.48533 159.399 5.352 158.855 5.352C158.311 5.352 157.815 5.48 157.367 5.736C156.919 5.992 156.561 6.36533 156.295 6.856C156.028 7.34667 155.895 7.92267 155.895 8.584C155.895 9.256 156.028 9.84267 156.295 10.344C156.561 10.8347 156.919 11.2133 157.367 11.48C157.815 11.736 158.311 11.864 158.855 11.864C159.399 11.864 159.895 11.736 160.343 11.48C160.801 11.2133 161.164 10.8347 161.431 10.344C161.697 9.84267 161.831 9.26133 161.831 8.6ZM173.293 11.656L176.013 4.232H177.565L174.125 13H172.429L168.989 4.232H170.557L173.293 11.656ZM179.75 2.808C179.472 2.808 179.238 2.712 179.046 2.52C178.854 2.328 178.758 2.09333 178.758 1.816C178.758 1.53867 178.854 1.304 179.046 1.112C179.238 0.919999 179.472 0.823999 179.75 0.823999C180.016 0.823999 180.24 0.919999 180.422 1.112C180.614 1.304 180.71 1.53867 180.71 1.816C180.71 2.09333 180.614 2.328 180.422 2.52C180.24 2.712 180.016 2.808 179.75 2.808ZM180.454 4.232V13H178.998V4.232H180.454ZM182.391 8.584C182.391 7.688 182.572 6.904 182.935 6.232C183.298 5.54933 183.794 5.02133 184.423 4.648C185.063 4.27467 185.778 4.088 186.567 4.088C187.25 4.088 187.884 4.248 188.471 4.568C189.058 4.87733 189.506 5.288 189.815 5.8V1.16H191.287V13H189.815V11.352C189.527 11.8747 189.1 12.3067 188.535 12.648C187.97 12.9787 187.308 13.144 186.551 13.144C185.772 13.144 185.063 12.952 184.423 12.568C183.794 12.184 183.298 11.6453 182.935 10.952C182.572 10.2587 182.391 9.46933 182.391 8.584ZM189.815 8.6C189.815 7.93867 189.682 7.36267 189.415 6.872C189.148 6.38133 188.786 6.008 188.327 5.752C187.879 5.48533 187.383 5.352 186.839 5.352C186.295 5.352 185.799 5.48 185.351 5.736C184.903 5.992 184.546 6.36533 184.279 6.856C184.012 7.34667 183.879 7.92267 183.879 8.584C183.879 9.256 184.012 9.84267 184.279 10.344C184.546 10.8347 184.903 11.2133 185.351 11.48C185.799 11.736 186.295 11.864 186.839 11.864C187.383 11.864 187.879 11.736 188.327 11.48C188.786 11.2133 189.148 10.8347 189.415 10.344C189.682 9.84267 189.815 9.26133 189.815 8.6ZM193.204 8.584C193.204 7.688 193.385 6.904 193.748 6.232C194.11 5.54933 194.606 5.02133 195.236 4.648C195.876 4.27467 196.585 4.088 197.364 4.088C198.132 4.088 198.798 4.25333 199.364 4.584C199.929 4.91467 200.35 5.33067 200.628 5.832V4.232H202.1V13H200.628V11.368C200.34 11.88 199.908 12.3067 199.332 12.648C198.766 12.9787 198.105 13.144 197.348 13.144C196.569 13.144 195.865 12.952 195.236 12.568C194.606 12.184 194.11 11.6453 193.748 10.952C193.385 10.2587 193.204 9.46933 193.204 8.584ZM200.628 8.6C200.628 7.93867 200.494 7.36267 200.228 6.872C199.961 6.38133 199.598 6.008 199.14 5.752C198.692 5.48533 198.196 5.352 197.652 5.352C197.108 5.352 196.612 5.48 196.164 5.736C195.716 5.992 195.358 6.36533 195.092 6.856C194.825 7.34667 194.692 7.92267 194.692 8.584C194.692 9.256 194.825 9.84267 195.092 10.344C195.358 10.8347 195.716 11.2133 196.164 11.48C196.612 11.736 197.108 11.864 197.652 11.864C198.196 11.864 198.692 11.736 199.14 11.48C199.598 11.2133 199.961 10.8347 200.228 10.344C200.494 9.84267 200.628 9.26133 200.628 8.6ZM0.914563 32.584C0.914563 31.688 1.0959 30.904 1.45856 30.232C1.82123 29.5493 2.31723 29.0213 2.94656 28.648C3.58656 28.2747 4.2959 28.088 5.07456 28.088C5.84256 28.088 6.50923 28.2533 7.07456 28.584C7.6399 28.9147 8.06123 29.3307 8.33856 29.832V28.232H9.81056V37H8.33856V35.368C8.05056 35.88 7.61856 36.3067 7.04256 36.648C6.47723 36.9787 5.8159 37.144 5.05856 37.144C4.2799 37.144 3.5759 36.952 2.94656 36.568C2.31723 36.184 1.82123 35.6453 1.45856 34.952C1.0959 34.2587 0.914563 33.4693 0.914563 32.584ZM8.33856 32.6C8.33856 31.9387 8.20523 31.3627 7.93856 30.872C7.6719 30.3813 7.30923 30.008 6.85056 29.752C6.40256 29.4853 5.90656 29.352 5.36256 29.352C4.81856 29.352 4.32256 29.48 3.87456 29.736C3.42656 29.992 3.06923 30.3653 2.80256 30.856C2.5359 31.3467 2.40256 31.9227 2.40256 32.584C2.40256 33.256 2.5359 33.8427 2.80256 34.344C3.06923 34.8347 3.42656 35.2133 3.87456 35.48C4.32256 35.736 4.81856 35.864 5.36256 35.864C5.90656 35.864 6.40256 35.736 6.85056 35.48C7.30923 35.2133 7.6719 34.8347 7.93856 34.344C8.20523 33.8427 8.33856 33.2613 8.33856 32.6ZM11.7271 32.584C11.7271 31.688 11.9084 30.904 12.2711 30.232C12.6337 29.5493 13.1297 29.0213 13.7591 28.648C14.3991 28.2747 15.1137 28.088 15.9031 28.088C16.5857 28.088 17.2204 28.248 17.8071 28.568C18.3937 28.8773 18.8417 29.288 19.1511 29.8V25.16H20.6231V37H19.1511V35.352C18.8631 35.8747 18.4364 36.3067 17.8711 36.648C17.3057 36.9787 16.6444 37.144 15.8871 37.144C15.1084 37.144 14.3991 36.952 13.7591 36.568C13.1297 36.184 12.6337 35.6453 12.2711 34.952C11.9084 34.2587 11.7271 33.4693 11.7271 32.584ZM19.1511 32.6C19.1511 31.9387 19.0177 31.3627 18.7511 30.872C18.4844 30.3813 18.1217 30.008 17.6631 29.752C17.2151 29.4853 16.7191 29.352 16.1751 29.352C15.6311 29.352 15.1351 29.48 14.6871 29.736C14.2391 29.992 13.8817 30.3653 13.6151 30.856C13.3484 31.3467 13.2151 31.9227 13.2151 32.584C13.2151 33.256 13.3484 33.8427 13.6151 34.344C13.8817 34.8347 14.2391 35.2133 14.6871 35.48C15.1351 35.736 15.6311 35.864 16.1751 35.864C16.7191 35.864 17.2151 35.736 17.6631 35.48C18.1217 35.2133 18.4844 34.8347 18.7511 34.344C19.0177 33.8427 19.1511 33.2613 19.1511 32.6ZM26.9076 37.144C26.0862 37.144 25.3396 36.9573 24.6676 36.584C24.0062 36.2107 23.4836 35.6827 23.0996 35C22.7262 34.3067 22.5396 33.5067 22.5396 32.6C22.5396 31.704 22.7316 30.9147 23.1156 30.232C23.5102 29.5387 24.0436 29.0107 24.7156 28.648C25.3876 28.2747 26.1396 28.088 26.9716 28.088C27.8036 28.088 28.5556 28.2747 29.2276 28.648C29.8996 29.0107 30.4276 29.5333 30.8116 30.216C31.2062 30.8987 31.4036 31.6933 31.4036 32.6C31.4036 33.5067 31.2009 34.3067 30.7956 35C30.4009 35.6827 29.8622 36.2107 29.1796 36.584C28.4969 36.9573 27.7396 37.144 26.9076 37.144ZM26.9076 35.864C27.4302 35.864 27.9209 35.7413 28.3796 35.496C28.8382 35.2507 29.2062 34.8827 29.4836 34.392C29.7716 33.9013 29.9156 33.304 29.9156 32.6C29.9156 31.896 29.7769 31.2987 29.4996 30.808C29.2222 30.3173 28.8596 29.9547 28.4116 29.72C27.9636 29.4747 27.4782 29.352 26.9556 29.352C26.4222 29.352 25.9316 29.4747 25.4836 29.72C25.0462 29.9547 24.6942 30.3173 24.4276 30.808C24.1609 31.2987 24.0276 31.896 24.0276 32.6C24.0276 33.3147 24.1556 33.9173 24.4116 34.408C24.6782 34.8987 25.0302 35.2667 25.4676 35.512C25.9049 35.7467 26.3849 35.864 26.9076 35.864ZM35.0939 29.432V34.6C35.0939 35.0267 35.1846 35.3307 35.3659 35.512C35.5473 35.6827 35.8619 35.768 36.3099 35.768H37.3819V37H36.0699C35.2593 37 34.6513 36.8133 34.2459 36.44C33.8406 36.0667 33.6379 35.4533 33.6379 34.6V29.432H32.5019V28.232H33.6379V26.024H35.0939V28.232H37.3819V29.432H35.0939ZM38.6021 32.584C38.6021 31.688 38.7834 30.904 39.1461 30.232C39.5087 29.5493 40.0047 29.0213 40.6341 28.648C41.2741 28.2747 41.9834 28.088 42.7621 28.088C43.5301 28.088 44.1967 28.2533 44.7621 28.584C45.3274 28.9147 45.7487 29.3307 46.0261 29.832V28.232H47.4981V37H46.0261V35.368C45.7381 35.88 45.3061 36.3067 44.7301 36.648C44.1647 36.9787 43.5034 37.144 42.7461 37.144C41.9674 37.144 41.2634 36.952 40.6341 36.568C40.0047 36.184 39.5087 35.6453 39.1461 34.952C38.7834 34.2587 38.6021 33.4693 38.6021 32.584ZM46.0261 32.6C46.0261 31.9387 45.8927 31.3627 45.6261 30.872C45.3594 30.3813 44.9967 30.008 44.5381 29.752C44.0901 29.4853 43.5941 29.352 43.0501 29.352C42.5061 29.352 42.0101 29.48 41.5621 29.736C41.1141 29.992 40.7567 30.3653 40.4901 30.856C40.2234 31.3467 40.0901 31.9227 40.0901 32.584C40.0901 33.256 40.2234 33.8427 40.4901 34.344C40.7567 34.8347 41.1141 35.2133 41.5621 35.48C42.0101 35.736 42.5061 35.864 43.0501 35.864C43.5941 35.864 44.0901 35.736 44.5381 35.48C44.9967 35.2133 45.3594 34.8347 45.6261 34.344C45.8927 33.8427 46.0261 33.2613 46.0261 32.6ZM54.2306 28.072C55.2972 28.072 56.1612 28.3973 56.8226 29.048C57.4839 29.688 57.8146 30.616 57.8146 31.832V37H56.3746V32.04C56.3746 31.1653 56.1559 30.4987 55.7186 30.04C55.2812 29.5707 54.6839 29.336 53.9266 29.336C53.1586 29.336 52.5452 29.576 52.0866 30.056C51.6386 30.536 51.4146 31.2347 51.4146 32.152V37H49.9586V28.232H51.4146V29.48C51.7026 29.032 52.0919 28.6853 52.5826 28.44C53.0839 28.1947 53.6332 28.072 54.2306 28.072ZM59.6489 32.584C59.6489 31.688 59.8303 30.904 60.1929 30.232C60.5556 29.5493 61.0516 29.0213 61.6809 28.648C62.3209 28.2747 63.0356 28.088 63.8249 28.088C64.5076 28.088 65.1423 28.248 65.7289 28.568C66.3156 28.8773 66.7636 29.288 67.0729 29.8V25.16H68.5449V37H67.0729V35.352C66.7849 35.8747 66.3583 36.3067 65.7929 36.648C65.2276 36.9787 64.5663 37.144 63.8089 37.144C63.0303 37.144 62.3209 36.952 61.6809 36.568C61.0516 36.184 60.5556 35.6453 60.1929 34.952C59.8303 34.2587 59.6489 33.4693 59.6489 32.584ZM67.0729 32.6C67.0729 31.9387 66.9396 31.3627 66.6729 30.872C66.4063 30.3813 66.0436 30.008 65.5849 29.752C65.1369 29.4853 64.6409 29.352 64.0969 29.352C63.5529 29.352 63.0569 29.48 62.6089 29.736C62.1609 29.992 61.8036 30.3653 61.5369 30.856C61.2703 31.3467 61.1369 31.9227 61.1369 32.584C61.1369 33.256 61.2703 33.8427 61.5369 34.344C61.8036 34.8347 62.1609 35.2133 62.6089 35.48C63.0569 35.736 63.5529 35.864 64.0969 35.864C64.6409 35.864 65.1369 35.736 65.5849 35.48C66.0436 35.2133 66.4063 34.8347 66.6729 34.344C66.9396 33.8427 67.0729 33.2613 67.0729 32.6ZM74.8294 37.144C74.0081 37.144 73.2614 36.9573 72.5894 36.584C71.9281 36.2107 71.4054 35.6827 71.0214 35C70.6481 34.3067 70.4614 33.5067 70.4614 32.6C70.4614 31.704 70.6534 30.9147 71.0374 30.232C71.4321 29.5387 71.9654 29.0107 72.6374 28.648C73.3094 28.2747 74.0614 28.088 74.8934 28.088C75.7254 28.088 76.4774 28.2747 77.1494 28.648C77.8214 29.0107 78.3494 29.5333 78.7334 30.216C79.1281 30.8987 79.3254 31.6933 79.3254 32.6C79.3254 33.5067 79.1228 34.3067 78.7174 35C78.3228 35.6827 77.7841 36.2107 77.1014 36.584C76.4188 36.9573 75.6614 37.144 74.8294 37.144ZM74.8294 35.864C75.3521 35.864 75.8428 35.7413 76.3014 35.496C76.7601 35.2507 77.1281 34.8827 77.4054 34.392C77.6934 33.9013 77.8374 33.304 77.8374 32.6C77.8374 31.896 77.6988 31.2987 77.4214 30.808C77.1441 30.3173 76.7814 29.9547 76.3334 29.72C75.8854 29.4747 75.4001 29.352 74.8774 29.352C74.3441 29.352 73.8534 29.4747 73.4054 29.72C72.9681 29.9547 72.6161 30.3173 72.3494 30.808C72.0828 31.2987 71.9494 31.896 71.9494 32.6C71.9494 33.3147 72.0774 33.9173 72.3334 34.408C72.6001 34.8987 72.9521 35.2667 73.3894 35.512C73.8268 35.7467 74.3068 35.864 74.8294 35.864ZM88.6094 37.144C87.9374 37.144 87.3348 37.032 86.8014 36.808C86.2681 36.5733 85.8468 36.2533 85.5374 35.848C85.2281 35.432 85.0574 34.9573 85.0254 34.424H86.5294C86.5721 34.8613 86.7748 35.2187 87.1374 35.496C87.5108 35.7733 87.9961 35.912 88.5934 35.912C89.1481 35.912 89.5854 35.7893 89.9054 35.544C90.2254 35.2987 90.3854 34.9893 90.3854 34.616C90.3854 34.232 90.2148 33.9493 89.8734 33.768C89.5321 33.576 89.0041 33.3893 88.2894 33.208C87.6388 33.0373 87.1054 32.8667 86.6894 32.696C86.2841 32.5147 85.9321 32.2533 85.6334 31.912C85.3454 31.56 85.2014 31.1013 85.2014 30.536C85.2014 30.088 85.3348 29.6773 85.6014 29.304C85.8681 28.9307 86.2468 28.6373 86.7374 28.424C87.2281 28.2 87.7881 28.088 88.4174 28.088C89.3881 28.088 90.1721 28.3333 90.7694 28.824C91.3668 29.3147 91.6868 29.9867 91.7294 30.84H90.2734C90.2414 30.3813 90.0548 30.0133 89.7134 29.736C89.3828 29.4587 88.9348 29.32 88.3694 29.32C87.8468 29.32 87.4308 29.432 87.1214 29.656C86.8121 29.88 86.6574 30.1733 86.6574 30.536C86.6574 30.824 86.7481 31.064 86.9294 31.256C87.1214 31.4373 87.3561 31.5867 87.6334 31.704C87.9214 31.8107 88.3161 31.9333 88.8174 32.072C89.4468 32.2427 89.9588 32.4133 90.3534 32.584C90.7481 32.744 91.0841 32.9893 91.3614 33.32C91.6494 33.6507 91.7988 34.0827 91.8094 34.616C91.8094 35.096 91.6761 35.528 91.4094 35.912C91.1428 36.296 90.7641 36.6 90.2734 36.824C89.7934 37.0373 89.2388 37.144 88.6094 37.144ZM101.865 32.28C101.865 32.5573 101.849 32.8507 101.817 33.16H94.8088C94.8621 34.024 95.1555 34.7013 95.6888 35.192C96.2328 35.672 96.8888 35.912 97.6568 35.912C98.2861 35.912 98.8088 35.768 99.2248 35.48C99.6515 35.1813 99.9501 34.7867 100.121 34.296H101.689C101.454 35.1387 100.985 35.8267 100.281 36.36C99.5768 36.8827 98.7021 37.144 97.6568 37.144C96.8248 37.144 96.0781 36.9573 95.4168 36.584C94.7661 36.2107 94.2541 35.6827 93.8808 35C93.5075 34.3067 93.3208 33.5067 93.3208 32.6C93.3208 31.6933 93.5021 30.8987 93.8648 30.216C94.2275 29.5333 94.7341 29.0107 95.3848 28.648C96.0461 28.2747 96.8035 28.088 97.6568 28.088C98.4888 28.088 99.2248 28.2693 99.8648 28.632C100.505 28.9947 100.995 29.496 101.337 30.136C101.689 30.7653 101.865 31.48 101.865 32.28ZM100.361 31.976C100.361 31.4213 100.238 30.9467 99.9928 30.552C99.7475 30.1467 99.4115 29.8427 98.9848 29.64C98.5688 29.4267 98.1048 29.32 97.5928 29.32C96.8568 29.32 96.2275 29.5547 95.7048 30.024C95.1928 30.4933 94.8995 31.144 94.8248 31.976H100.361ZM111.563 28.232V37H110.107V35.704C109.829 36.152 109.44 36.504 108.939 36.76C108.448 37.0053 107.904 37.128 107.307 37.128C106.624 37.128 106.011 36.9893 105.467 36.712C104.923 36.424 104.491 35.9973 104.171 35.432C103.861 34.8667 103.707 34.1787 103.707 33.368V28.232H105.147V33.176C105.147 34.04 105.365 34.7067 105.803 35.176C106.24 35.6347 106.837 35.864 107.595 35.864C108.373 35.864 108.987 35.624 109.435 35.144C109.883 34.664 110.107 33.9653 110.107 33.048V28.232H111.563ZM122.559 28.072C123.625 28.072 124.489 28.3973 125.151 29.048C125.812 29.688 126.143 30.616 126.143 31.832V37H124.703V32.04C124.703 31.1653 124.484 30.4987 124.047 30.04C123.609 29.5707 123.012 29.336 122.255 29.336C121.487 29.336 120.873 29.576 120.415 30.056C119.967 30.536 119.743 31.2347 119.743 32.152V37H118.287V28.232H119.743V29.48C120.031 29.032 120.42 28.6853 120.911 28.44C121.412 28.1947 121.961 28.072 122.559 28.072ZM132.345 37.144C131.524 37.144 130.777 36.9573 130.105 36.584C129.444 36.2107 128.921 35.6827 128.537 35C128.164 34.3067 127.977 33.5067 127.977 32.6C127.977 31.704 128.169 30.9147 128.553 30.232C128.948 29.5387 129.481 29.0107 130.153 28.648C130.825 28.2747 131.577 28.088 132.409 28.088C133.241 28.088 133.993 28.2747 134.665 28.648C135.337 29.0107 135.865 29.5333 136.249 30.216C136.644 30.8987 136.841 31.6933 136.841 32.6C136.841 33.5067 136.638 34.3067 136.233 35C135.838 35.6827 135.3 36.2107 134.617 36.584C133.934 36.9573 133.177 37.144 132.345 37.144ZM132.345 35.864C132.868 35.864 133.358 35.7413 133.817 35.496C134.276 35.2507 134.644 34.8827 134.921 34.392C135.209 33.9013 135.353 33.304 135.353 32.6C135.353 31.896 135.214 31.2987 134.937 30.808C134.66 30.3173 134.297 29.9547 133.849 29.72C133.401 29.4747 132.916 29.352 132.393 29.352C131.86 29.352 131.369 29.4747 130.921 29.72C130.484 29.9547 130.132 30.3173 129.865 30.808C129.598 31.2987 129.465 31.896 129.465 32.6C129.465 33.3147 129.593 33.9173 129.849 34.408C130.116 34.8987 130.468 35.2667 130.905 35.512C131.342 35.7467 131.822 35.864 132.345 35.864ZM142.019 35.656L144.739 28.232H146.291L142.851 37H141.155L137.715 28.232H139.283L142.019 35.656ZM151.548 37.144C150.727 37.144 149.98 36.9573 149.308 36.584C148.647 36.2107 148.124 35.6827 147.74 35C147.367 34.3067 147.18 33.5067 147.18 32.6C147.18 31.704 147.372 30.9147 147.756 30.232C148.151 29.5387 148.684 29.0107 149.356 28.648C150.028 28.2747 150.78 28.088 151.612 28.088C152.444 28.088 153.196 28.2747 153.868 28.648C154.54 29.0107 155.068 29.5333 155.452 30.216C155.847 30.8987 156.044 31.6933 156.044 32.6C156.044 33.5067 155.842 34.3067 155.436 35C155.042 35.6827 154.503 36.2107 153.82 36.584C153.138 36.9573 152.38 37.144 151.548 37.144ZM151.548 35.864C152.071 35.864 152.562 35.7413 153.02 35.496C153.479 35.2507 153.847 34.8827 154.124 34.392C154.412 33.9013 154.556 33.304 154.556 32.6C154.556 31.896 154.418 31.2987 154.14 30.808C153.863 30.3173 153.5 29.9547 153.052 29.72C152.604 29.4747 152.119 29.352 151.596 29.352C151.063 29.352 150.572 29.4747 150.124 29.72C149.687 29.9547 149.335 30.3173 149.068 30.808C148.802 31.2987 148.668 31.896 148.668 32.6C148.668 33.3147 148.796 33.9173 149.052 34.408C149.319 34.8987 149.671 35.2667 150.108 35.512C150.546 35.7467 151.026 35.864 151.548 35.864ZM172.768 28.072C173.451 28.072 174.059 28.216 174.592 28.504C175.126 28.7813 175.547 29.2027 175.856 29.768C176.166 30.3333 176.32 31.0213 176.32 31.832V37H174.88V32.04C174.88 31.1653 174.662 30.4987 174.224 30.04C173.798 29.5707 173.216 29.336 172.48 29.336C171.723 29.336 171.12 29.5813 170.672 30.072C170.224 30.552 170 31.2507 170 32.168V37H168.56V32.04C168.56 31.1653 168.342 30.4987 167.904 30.04C167.478 29.5707 166.896 29.336 166.16 29.336C165.403 29.336 164.8 29.5813 164.352 30.072C163.904 30.552 163.68 31.2507 163.68 32.168V37H162.224V28.232H163.68V29.496C163.968 29.0373 164.352 28.6853 164.832 28.44C165.323 28.1947 165.862 28.072 166.448 28.072C167.184 28.072 167.835 28.2373 168.4 28.568C168.966 28.8987 169.387 29.384 169.664 30.024C169.91 29.4053 170.315 28.9253 170.88 28.584C171.446 28.2427 172.075 28.072 172.768 28.072ZM186.709 32.28C186.709 32.5573 186.693 32.8507 186.661 33.16H179.653C179.706 34.024 179.999 34.7013 180.533 35.192C181.077 35.672 181.733 35.912 182.501 35.912C183.13 35.912 183.653 35.768 184.069 35.48C184.495 35.1813 184.794 34.7867 184.965 34.296H186.533C186.298 35.1387 185.829 35.8267 185.125 36.36C184.421 36.8827 183.546 37.144 182.501 37.144C181.669 37.144 180.922 36.9573 180.261 36.584C179.61 36.2107 179.098 35.6827 178.725 35C178.351 34.3067 178.165 33.5067 178.165 32.6C178.165 31.6933 178.346 30.8987 178.709 30.216C179.071 29.5333 179.578 29.0107 180.229 28.648C180.89 28.2747 181.647 28.088 182.501 28.088C183.333 28.088 184.069 28.2693 184.709 28.632C185.349 28.9947 185.839 29.496 186.181 30.136C186.533 30.7653 186.709 31.48 186.709 32.28ZM185.205 31.976C185.205 31.4213 185.082 30.9467 184.837 30.552C184.591 30.1467 184.255 29.8427 183.829 29.64C183.413 29.4267 182.949 29.32 182.437 29.32C181.701 29.32 181.071 29.5547 180.549 30.024C180.037 30.4933 179.743 31.144 179.669 31.976H185.205ZM190.086 25.16V37H188.63V25.16H190.086ZM196.92 28.072C197.581 28.072 198.179 28.216 198.712 28.504C199.245 28.7813 199.661 29.2027 199.96 29.768C200.269 30.3333 200.424 31.0213 200.424 31.832V37H198.984V32.04C198.984 31.1653 198.765 30.4987 198.328 30.04C197.891 29.5707 197.293 29.336 196.536 29.336C195.768 29.336 195.155 29.576 194.696 30.056C194.248 30.536 194.024 31.2347 194.024 32.152V37H192.568V25.16H194.024V29.48C194.312 29.032 194.707 28.6853 195.208 28.44C195.72 28.1947 196.291 28.072 196.92 28.072ZM206.626 37.144C205.805 37.144 205.058 36.9573 204.386 36.584C203.725 36.2107 203.202 35.6827 202.818 35C202.445 34.3067 202.258 33.5067 202.258 32.6C202.258 31.704 202.45 30.9147 202.834 30.232C203.229 29.5387 203.762 29.0107 204.434 28.648C205.106 28.2747 205.858 28.088 206.69 28.088C207.522 28.088 208.274 28.2747 208.946 28.648C209.618 29.0107 210.146 29.5333 210.53 30.216C210.925 30.8987 211.122 31.6933 211.122 32.6C211.122 33.5067 210.92 34.3067 210.514 35C210.12 35.6827 209.581 36.2107 208.898 36.584C208.216 36.9573 207.458 37.144 206.626 37.144ZM206.626 35.864C207.149 35.864 207.64 35.7413 208.098 35.496C208.557 35.2507 208.925 34.8827 209.202 34.392C209.49 33.9013 209.634 33.304 209.634 32.6C209.634 31.896 209.496 31.2987 209.218 30.808C208.941 30.3173 208.578 29.9547 208.13 29.72C207.682 29.4747 207.197 29.352 206.674 29.352C206.141 29.352 205.65 29.4747 205.202 29.72C204.765 29.9547 204.413 30.3173 204.146 30.808C203.88 31.2987 203.746 31.896 203.746 32.6C203.746 33.3147 203.874 33.9173 204.13 34.408C204.397 34.8987 204.749 35.2667 205.186 35.512C205.624 35.7467 206.104 35.864 206.626 35.864ZM214.493 29.656C214.749 29.1547 215.111 28.7653 215.581 28.488C216.061 28.2107 216.642 28.072 217.325 28.072V29.576H216.941C215.309 29.576 214.493 30.4613 214.493 32.232V37H213.037V28.232H214.493V29.656ZM2.84425 56.584C2.84425 55.688 3.02558 54.904 3.38825 54.232C3.75092 53.5493 4.24692 53.0213 4.87625 52.648C5.51625 52.2747 6.22558 52.088 7.00425 52.088C7.77225 52.088 8.43892 52.2533 9.00425 52.584C9.56958 52.9147 9.99092 53.3307 10.2683 53.832V52.232H11.7403V61H10.2683V59.368C9.98025 59.88 9.54825 60.3067 8.97225 60.648C8.40692 60.9787 7.74558 61.144 6.98825 61.144C6.20958 61.144 5.50558 60.952 4.87625 60.568C4.24692 60.184 3.75092 59.6453 3.38825 58.952C3.02558 58.2587 2.84425 57.4693 2.84425 56.584ZM10.2683 56.6C10.2683 55.9387 10.1349 55.3627 9.86825 54.872C9.60158 54.3813 9.23892 54.008 8.78025 53.752C8.33225 53.4853 7.83625 53.352 7.29225 53.352C6.74825 53.352 6.25225 53.48 5.80425 53.736C5.35625 53.992 4.99892 54.3653 4.73225 54.856C4.46558 55.3467 4.33225 55.9227 4.33225 56.584C4.33225 57.256 4.46558 57.8427 4.73225 58.344C4.99892 58.8347 5.35625 59.2133 5.80425 59.48C6.25225 59.736 6.74825 59.864 7.29225 59.864C7.83625 59.864 8.33225 59.736 8.78025 59.48C9.23892 59.2133 9.60158 58.8347 9.86825 58.344C10.1349 57.8427 10.2683 57.2613 10.2683 56.6ZM24.7448 52.072C25.4274 52.072 26.0354 52.216 26.5688 52.504C27.1021 52.7813 27.5234 53.2027 27.8328 53.768C28.1421 54.3333 28.2968 55.0213 28.2968 55.832V61H26.8568V56.04C26.8568 55.1653 26.6381 54.4987 26.2008 54.04C25.7741 53.5707 25.1928 53.336 24.4568 53.336C23.6994 53.336 23.0968 53.5813 22.6488 54.072C22.2008 54.552 21.9768 55.2507 21.9768 56.168V61H20.5368V56.04C20.5368 55.1653 20.3181 54.4987 19.8808 54.04C19.4541 53.5707 18.8728 53.336 18.1368 53.336C17.3794 53.336 16.7768 53.5813 16.3288 54.072C15.8808 54.552 15.6568 55.2507 15.6568 56.168V61H14.2008V52.232H15.6568V53.496C15.9448 53.0373 16.3288 52.6853 16.8088 52.44C17.2994 52.1947 17.8381 52.072 18.4248 52.072C19.1608 52.072 19.8114 52.2373 20.3768 52.568C20.9421 52.8987 21.3634 53.384 21.6408 54.024C21.8861 53.4053 22.2914 52.9253 22.8568 52.584C23.4221 52.2427 24.0514 52.072 24.7448 52.072ZM31.4371 50.808C31.1598 50.808 30.9251 50.712 30.7331 50.52C30.5411 50.328 30.4451 50.0933 30.4451 49.816C30.4451 49.5387 30.5411 49.304 30.7331 49.112C30.9251 48.92 31.1598 48.824 31.4371 48.824C31.7038 48.824 31.9278 48.92 32.1091 49.112C32.3011 49.304 32.3971 49.5387 32.3971 49.816C32.3971 50.0933 32.3011 50.328 32.1091 50.52C31.9278 50.712 31.7038 50.808 31.4371 50.808ZM32.1411 52.232V61H30.6851V52.232H32.1411ZM38.2386 52.088C38.996 52.088 39.6573 52.2533 40.2226 52.584C40.7986 52.9147 41.2253 53.3307 41.5026 53.832V52.232H42.9746V61.192C42.9746 61.992 42.804 62.7013 42.4626 63.32C42.1213 63.9493 41.6306 64.44 40.9906 64.792C40.3613 65.144 39.6253 65.32 38.7826 65.32C37.6306 65.32 36.6706 65.048 35.9026 64.504C35.1346 63.96 34.6813 63.2187 34.5426 62.28H35.9826C36.1426 62.8133 36.4733 63.24 36.9746 63.56C37.476 63.8907 38.0786 64.056 38.7826 64.056C39.5826 64.056 40.2333 63.8053 40.7346 63.304C41.2466 62.8027 41.5026 62.0987 41.5026 61.192V59.352C41.2146 59.864 40.788 60.2907 40.2226 60.632C39.6573 60.9733 38.996 61.144 38.2386 61.144C37.46 61.144 36.7506 60.952 36.1106 60.568C35.4813 60.184 34.9853 59.6453 34.6226 58.952C34.26 58.2587 34.0786 57.4693 34.0786 56.584C34.0786 55.688 34.26 54.904 34.6226 54.232C34.9853 53.5493 35.4813 53.0213 36.1106 52.648C36.7506 52.2747 37.46 52.088 38.2386 52.088ZM41.5026 56.6C41.5026 55.9387 41.3693 55.3627 41.1026 54.872C40.836 54.3813 40.4733 54.008 40.0146 53.752C39.5666 53.4853 39.0706 53.352 38.5266 53.352C37.9826 53.352 37.4866 53.48 37.0386 53.736C36.5906 53.992 36.2333 54.3653 35.9666 54.856C35.7 55.3467 35.5666 55.9227 35.5666 56.584C35.5666 57.256 35.7 57.8427 35.9666 58.344C36.2333 58.8347 36.5906 59.2133 37.0386 59.48C37.4866 59.736 37.9826 59.864 38.5266 59.864C39.0706 59.864 39.5666 59.736 40.0146 59.48C40.4733 59.2133 40.836 58.8347 41.1026 58.344C41.3693 57.8427 41.5026 57.2613 41.5026 56.6ZM49.2591 61.144C48.4378 61.144 47.6911 60.9573 47.0191 60.584C46.3578 60.2107 45.8351 59.6827 45.4511 59C45.0778 58.3067 44.8911 57.5067 44.8911 56.6C44.8911 55.704 45.0831 54.9147 45.4671 54.232C45.8618 53.5387 46.3951 53.0107 47.0671 52.648C47.7391 52.2747 48.4911 52.088 49.3231 52.088C50.1551 52.088 50.9071 52.2747 51.5791 52.648C52.2511 53.0107 52.7791 53.5333 53.1631 54.216C53.5578 54.8987 53.7551 55.6933 53.7551 56.6C53.7551 57.5067 53.5525 58.3067 53.1471 59C52.7525 59.6827 52.2138 60.2107 51.5311 60.584C50.8485 60.9573 50.0911 61.144 49.2591 61.144ZM49.2591 59.864C49.7818 59.864 50.2725 59.7413 50.7311 59.496C51.1898 59.2507 51.5578 58.8827 51.8351 58.392C52.1231 57.9013 52.2671 57.304 52.2671 56.6C52.2671 55.896 52.1285 55.2987 51.8511 54.808C51.5738 54.3173 51.2111 53.9547 50.7631 53.72C50.3151 53.4747 49.8298 53.352 49.3071 53.352C48.7738 53.352 48.2831 53.4747 47.8351 53.72C47.3978 53.9547 47.0458 54.3173 46.7791 54.808C46.5125 55.2987 46.3791 55.896 46.3791 56.6C46.3791 57.3147 46.5071 57.9173 46.7631 58.408C47.0298 58.8987 47.3818 59.2667 47.8191 59.512C48.2565 59.7467 48.7365 59.864 49.2591 59.864ZM58.5175 49.704C59.5735 49.704 60.4268 50.0027 61.0775 50.6C61.7282 51.1973 62.0535 51.9973 62.0535 53C62.0535 54.12 61.7068 54.952 61.0135 55.496C60.3202 56.0293 59.3815 56.296 58.1975 56.296L58.1495 57.816H56.8855L56.8215 55.288H57.2855C58.3415 55.288 59.1682 55.128 59.7655 54.808C60.3628 54.488 60.6615 53.8853 60.6615 53C60.6615 52.36 60.4695 51.8533 60.0855 51.48C59.7015 51.1067 59.1842 50.92 58.5335 50.92C57.8722 50.92 57.3495 51.1013 56.9655 51.464C56.5922 51.816 56.4055 52.3013 56.4055 52.92H55.0295C55.0295 52.28 55.1735 51.72 55.4615 51.24C55.7495 50.7493 56.1548 50.3707 56.6775 50.104C57.2108 49.8373 57.8242 49.704 58.5175 49.704ZM57.5095 61.096C57.2322 61.096 56.9975 61 56.8055 60.808C56.6135 60.616 56.5175 60.3813 56.5175 60.104C56.5175 59.8267 56.6135 59.592 56.8055 59.4C56.9975 59.208 57.2322 59.112 57.5095 59.112C57.7762 59.112 58.0002 59.208 58.1815 59.4C58.3735 59.592 58.4695 59.8267 58.4695 60.104C58.4695 60.3813 58.3735 60.616 58.1815 60.808C58.0002 61 57.7762 61.096 57.5095 61.096ZM77.5418 49.848L73.3338 61H71.6538L67.4458 49.848H68.9978L72.5018 59.464L76.0058 49.848H77.5418ZM87.1383 56.28C87.1383 56.5573 87.1223 56.8507 87.0903 57.16H80.0823C80.1356 58.024 80.4289 58.7013 80.9623 59.192C81.5063 59.672 82.1623 59.912 82.9303 59.912C83.5596 59.912 84.0823 59.768 84.4983 59.48C84.9249 59.1813 85.2236 58.7867 85.3943 58.296H86.9623C86.7276 59.1387 86.2583 59.8267 85.5543 60.36C84.8503 60.8827 83.9756 61.144 82.9303 61.144C82.0983 61.144 81.3516 60.9573 80.6903 60.584C80.0396 60.2107 79.5276 59.6827 79.1543 59C78.7809 58.3067 78.5943 57.5067 78.5943 56.6C78.5943 55.6933 78.7756 54.8987 79.1383 54.216C79.5009 53.5333 80.0076 53.0107 80.6583 52.648C81.3196 52.2747 82.0769 52.088 82.9303 52.088C83.7623 52.088 84.4983 52.2693 85.1383 52.632C85.7783 52.9947 86.2689 53.496 86.6103 54.136C86.9623 54.7653 87.1383 55.48 87.1383 56.28ZM85.6343 55.976C85.6343 55.4213 85.5116 54.9467 85.2663 54.552C85.0209 54.1467 84.6849 53.8427 84.2583 53.64C83.8423 53.4267 83.3783 53.32 82.8663 53.32C82.1303 53.32 81.5009 53.5547 80.9783 54.024C80.4663 54.4933 80.1729 55.144 80.0983 55.976H85.6343ZM99.6041 52.072C100.287 52.072 100.895 52.216 101.428 52.504C101.961 52.7813 102.383 53.2027 102.692 53.768C103.001 54.3333 103.156 55.0213 103.156 55.832V61H101.716V56.04C101.716 55.1653 101.497 54.4987 101.06 54.04C100.633 53.5707 100.052 53.336 99.3161 53.336C98.5588 53.336 97.9561 53.5813 97.5081 54.072C97.0601 54.552 96.8361 55.2507 96.8361 56.168V61H95.3961V56.04C95.3961 55.1653 95.1775 54.4987 94.7401 54.04C94.3135 53.5707 93.7321 53.336 92.9961 53.336C92.2388 53.336 91.6361 53.5813 91.1881 54.072C90.7401 54.552 90.5161 55.2507 90.5161 56.168V61H89.0601V52.232H90.5161V53.496C90.8041 53.0373 91.1881 52.6853 91.6681 52.44C92.1588 52.1947 92.6975 52.072 93.2841 52.072C94.0201 52.072 94.6708 52.2373 95.2361 52.568C95.8015 52.8987 96.2228 53.384 96.5001 54.024C96.7455 53.4053 97.1508 52.9253 97.7161 52.584C98.2815 52.2427 98.9108 52.072 99.6041 52.072ZM109.266 56.6C109.266 55.6933 109.447 54.904 109.81 54.232C110.173 53.5493 110.674 53.0213 111.314 52.648C111.965 52.2747 112.706 52.088 113.538 52.088C114.615 52.088 115.501 52.3493 116.194 52.872C116.898 53.3947 117.362 54.12 117.586 55.048H116.018C115.869 54.5147 115.575 54.0933 115.138 53.784C114.711 53.4747 114.178 53.32 113.538 53.32C112.706 53.32 112.034 53.608 111.522 54.184C111.01 54.7493 110.754 55.5547 110.754 56.6C110.754 57.656 111.01 58.472 111.522 59.048C112.034 59.624 112.706 59.912 113.538 59.912C114.178 59.912 114.711 59.7627 115.138 59.464C115.565 59.1653 115.858 58.7387 116.018 58.184H117.586C117.351 59.08 116.882 59.8 116.178 60.344C115.474 60.8773 114.594 61.144 113.538 61.144C112.706 61.144 111.965 60.9573 111.314 60.584C110.674 60.2107 110.173 59.6827 109.81 59C109.447 58.3173 109.266 57.5173 109.266 56.6ZM123.353 61.144C122.532 61.144 121.785 60.9573 121.113 60.584C120.452 60.2107 119.929 59.6827 119.545 59C119.172 58.3067 118.985 57.5067 118.985 56.6C118.985 55.704 119.177 54.9147 119.561 54.232C119.956 53.5387 120.489 53.0107 121.161 52.648C121.833 52.2747 122.585 52.088 123.417 52.088C124.249 52.088 125.001 52.2747 125.673 52.648C126.345 53.0107 126.873 53.5333 127.257 54.216C127.652 54.8987 127.849 55.6933 127.849 56.6C127.849 57.5067 127.646 58.3067 127.241 59C126.846 59.6827 126.308 60.2107 125.625 60.584C124.942 60.9573 124.185 61.144 123.353 61.144ZM123.353 59.864C123.876 59.864 124.366 59.7413 124.825 59.496C125.284 59.2507 125.652 58.8827 125.929 58.392C126.217 57.9013 126.361 57.304 126.361 56.6C126.361 55.896 126.222 55.2987 125.945 54.808C125.668 54.3173 125.305 53.9547 124.857 53.72C124.409 53.4747 123.924 53.352 123.401 53.352C122.868 53.352 122.377 53.4747 121.929 53.72C121.492 53.9547 121.14 54.3173 120.873 54.808C120.606 55.2987 120.473 55.896 120.473 56.6C120.473 57.3147 120.601 57.9173 120.857 58.408C121.124 58.8987 121.476 59.2667 121.913 59.512C122.35 59.7467 122.83 59.864 123.353 59.864ZM140.307 52.072C140.99 52.072 141.598 52.216 142.131 52.504C142.665 52.7813 143.086 53.2027 143.395 53.768C143.705 54.3333 143.859 55.0213 143.859 55.832V61H142.419V56.04C142.419 55.1653 142.201 54.4987 141.763 54.04C141.337 53.5707 140.755 53.336 140.019 53.336C139.262 53.336 138.659 53.5813 138.211 54.072C137.763 54.552 137.539 55.2507 137.539 56.168V61H136.099V56.04C136.099 55.1653 135.881 54.4987 135.443 54.04C135.017 53.5707 134.435 53.336 133.699 53.336C132.942 53.336 132.339 53.5813 131.891 54.072C131.443 54.552 131.219 55.2507 131.219 56.168V61H129.763V52.232H131.219V53.496C131.507 53.0373 131.891 52.6853 132.371 52.44C132.862 52.1947 133.401 52.072 133.987 52.072C134.723 52.072 135.374 52.2373 135.939 52.568C136.505 52.8987 136.926 53.384 137.203 54.024C137.449 53.4053 137.854 52.9253 138.419 52.584C138.985 52.2427 139.614 52.072 140.307 52.072ZM149.969 56.584C149.969 55.688 150.151 54.904 150.513 54.232C150.876 53.5493 151.372 53.0213 152.001 52.648C152.641 52.2747 153.351 52.088 154.129 52.088C154.897 52.088 155.564 52.2533 156.129 52.584C156.695 52.9147 157.116 53.3307 157.393 53.832V52.232H158.865V61H157.393V59.368C157.105 59.88 156.673 60.3067 156.097 60.648C155.532 60.9787 154.871 61.144 154.113 61.144C153.335 61.144 152.631 60.952 152.001 60.568C151.372 60.184 150.876 59.6453 150.513 58.952C150.151 58.2587 149.969 57.4693 149.969 56.584ZM157.393 56.6C157.393 55.9387 157.26 55.3627 156.993 54.872C156.727 54.3813 156.364 54.008 155.905 53.752C155.457 53.4853 154.961 53.352 154.417 53.352C153.873 53.352 153.377 53.48 152.929 53.736C152.481 53.992 152.124 54.3653 151.857 54.856C151.591 55.3467 151.457 55.9227 151.457 56.584C151.457 57.256 151.591 57.8427 151.857 58.344C152.124 58.8347 152.481 59.2133 152.929 59.48C153.377 59.736 153.873 59.864 154.417 59.864C154.961 59.864 155.457 59.736 155.905 59.48C156.364 59.2133 156.727 58.8347 156.993 58.344C157.26 57.8427 157.393 57.2613 157.393 56.6ZM169.207 52.088C169.965 52.088 170.626 52.2533 171.191 52.584C171.767 52.9147 172.194 53.3307 172.471 53.832V52.232H173.943V61.192C173.943 61.992 173.773 62.7013 173.431 63.32C173.09 63.9493 172.599 64.44 171.959 64.792C171.33 65.144 170.594 65.32 169.751 65.32C168.599 65.32 167.639 65.048 166.871 64.504C166.103 63.96 165.65 63.2187 165.511 62.28H166.951C167.111 62.8133 167.442 63.24 167.943 63.56C168.445 63.8907 169.047 64.056 169.751 64.056C170.551 64.056 171.202 63.8053 171.703 63.304C172.215 62.8027 172.471 62.0987 172.471 61.192V59.352C172.183 59.864 171.757 60.2907 171.191 60.632C170.626 60.9733 169.965 61.144 169.207 61.144C168.429 61.144 167.719 60.952 167.079 60.568C166.45 60.184 165.954 59.6453 165.591 58.952C165.229 58.2587 165.047 57.4693 165.047 56.584C165.047 55.688 165.229 54.904 165.591 54.232C165.954 53.5493 166.45 53.0213 167.079 52.648C167.719 52.2747 168.429 52.088 169.207 52.088ZM172.471 56.6C172.471 55.9387 172.338 55.3627 172.071 54.872C171.805 54.3813 171.442 54.008 170.983 53.752C170.535 53.4853 170.039 53.352 169.495 53.352C168.951 53.352 168.455 53.48 168.007 53.736C167.559 53.992 167.202 54.3653 166.935 54.856C166.669 55.3467 166.535 55.9227 166.535 56.584C166.535 57.256 166.669 57.8427 166.935 58.344C167.202 58.8347 167.559 59.2133 168.007 59.48C168.455 59.736 168.951 59.864 169.495 59.864C170.039 59.864 170.535 59.736 170.983 59.48C171.442 59.2133 171.805 58.8347 172.071 58.344C172.338 57.8427 172.471 57.2613 172.471 56.6ZM184.404 56.28C184.404 56.5573 184.388 56.8507 184.356 57.16H177.348C177.401 58.024 177.695 58.7013 178.228 59.192C178.772 59.672 179.428 59.912 180.196 59.912C180.825 59.912 181.348 59.768 181.764 59.48C182.191 59.1813 182.489 58.7867 182.66 58.296H184.228C183.993 59.1387 183.524 59.8267 182.82 60.36C182.116 60.8827 181.241 61.144 180.196 61.144C179.364 61.144 178.617 60.9573 177.956 60.584C177.305 60.2107 176.793 59.6827 176.42 59C176.047 58.3067 175.86 57.5067 175.86 56.6C175.86 55.6933 176.041 54.8987 176.404 54.216C176.767 53.5333 177.273 53.0107 177.924 52.648C178.585 52.2747 179.343 52.088 180.196 52.088C181.028 52.088 181.764 52.2693 182.404 52.632C183.044 52.9947 183.535 53.496 183.876 54.136C184.228 54.7653 184.404 55.48 184.404 56.28ZM182.9 55.976C182.9 55.4213 182.777 54.9467 182.532 54.552C182.287 54.1467 181.951 53.8427 181.524 53.64C181.108 53.4267 180.644 53.32 180.132 53.32C179.396 53.32 178.767 53.5547 178.244 54.024C177.732 54.4933 177.439 55.144 177.364 55.976H182.9ZM190.598 52.072C191.664 52.072 192.528 52.3973 193.19 53.048C193.851 53.688 194.182 54.616 194.182 55.832V61H192.742V56.04C192.742 55.1653 192.523 54.4987 192.086 54.04C191.648 53.5707 191.051 53.336 190.294 53.336C189.526 53.336 188.912 53.576 188.454 54.056C188.006 54.536 187.782 55.2347 187.782 56.152V61H186.326V52.232H187.782V53.48C188.07 53.032 188.459 52.6853 188.95 52.44C189.451 52.1947 190 52.072 190.598 52.072ZM198.336 53.432V58.6C198.336 59.0267 198.427 59.3307 198.608 59.512C198.789 59.6827 199.104 59.768 199.552 59.768H200.624V61H199.312C198.501 61 197.893 60.8133 197.488 60.44C197.083 60.0667 196.88 59.4533 196.88 58.6V53.432H195.744V52.232H196.88V50.024H198.336V52.232H200.624V53.432H198.336ZM210.388 56.28C210.388 56.5573 210.372 56.8507 210.34 57.16H203.332C203.386 58.024 203.679 58.7013 204.212 59.192C204.756 59.672 205.412 59.912 206.18 59.912C206.81 59.912 207.332 59.768 207.748 59.48C208.175 59.1813 208.474 58.7867 208.644 58.296H210.212C209.978 59.1387 209.508 59.8267 208.804 60.36C208.1 60.8827 207.226 61.144 206.18 61.144C205.348 61.144 204.602 60.9573 203.94 60.584C203.29 60.2107 202.778 59.6827 202.404 59C202.031 58.3067 201.844 57.5067 201.844 56.6C201.844 55.6933 202.026 54.8987 202.388 54.216C202.751 53.5333 203.258 53.0107 203.908 52.648C204.57 52.2747 205.327 52.088 206.18 52.088C207.012 52.088 207.748 52.2693 208.388 52.632C209.028 52.9947 209.519 53.496 209.86 54.136C210.212 54.7653 210.388 55.48 210.388 56.28ZM208.884 55.976C208.884 55.4213 208.762 54.9467 208.516 54.552C208.271 54.1467 207.935 53.8427 207.508 53.64C207.092 53.4267 206.628 53.32 206.116 53.32C205.38 53.32 204.751 53.5547 204.228 54.024C203.716 54.4933 203.423 55.144 203.348 55.976H208.884ZM214.198 49.848L214.022 57.848H212.806L212.63 49.848H214.198ZM213.478 61.096C213.201 61.096 212.966 61 212.774 60.808C212.582 60.616 212.486 60.3813 212.486 60.104C212.486 59.8267 212.582 59.592 212.774 59.4C212.966 59.208 213.201 59.112 213.478 59.112C213.745 59.112 213.969 59.208 214.15 59.4C214.342 59.592 214.438 59.8267 214.438 60.104C214.438 60.3813 214.342 60.616 214.15 60.808C213.969 61 213.745 61.096 213.478 61.096Z" fill="white"/>
</svg>
